<svg width="128" height="128" viewBox="0 0 128 128" fill="none" xmlns="http://www.w3.org/2000/svg"><path d="M64 128C99.3462 128 128 99.3462 128 64C128 28.6538 99.3462 0 64 0C28.6538 0 0 28.6538 0 64C0 99.3462 28.6538 128 64 128Z" fill="#E63946"></path><path d="M83.8846 100.692H45.1154C43.1875 100.692 41.3385 99.9264 39.9753 98.5632C38.612 97.1999 37.8462 95.351 37.8462 93.4231V47.3846C37.8462 46.742 38.1014 46.1257 38.5559 45.6712C39.0103 45.2168 39.6266 44.9615 40.2692 44.9615C40.9119 44.9615 41.5282 45.2168 41.9826 45.6712C42.437 46.1257 42.6923 46.742 42.6923 47.3846V93.4231C42.6923 94.0657 42.9476 94.682 43.402 95.1364C43.8564 95.5909 44.4728 95.8461 45.1154 95.8461H83.8846C84.5273 95.8461 85.1436 95.5909 85.598 95.1364C86.0524 94.682 86.3077 94.0657 86.3077 93.4231V47.3846C86.3077 46.742 86.563 46.1257 87.0174 45.6712C87.4718 45.2168 88.0881 44.9615 88.7308 44.9615C89.3734 44.9615 89.9897 45.2168 90.4442 45.6712C90.8986 46.1257 91.1539 46.742 91.1539 47.3846V93.4231C91.1539 95.351 90.388 97.1999 89.0247 98.5632C87.6615 99.9264 85.8125 100.692 83.8846 100.692V100.692Z" fill="white"></path><path d="M93.5769 42.5385H35.4231C34.7804 42.5385 34.1641 42.2832 33.7097 41.8288C33.2553 41.3744 33 40.758 33 40.1154C33 39.4728 33.2553 38.8564 33.7097 38.402C34.1641 37.9476 34.7804 37.6923 35.4231 37.6923H93.5769C94.2196 37.6923 94.8359 37.9476 95.2903 38.402C95.7447 38.8564 96 39.4728 96 40.1154C96 40.758 95.7447 41.3744 95.2903 41.8288C94.8359 42.2832 94.2196 42.5385 93.5769 42.5385Z" fill="white"></path><path d="M74.1923 42.5385C73.5497 42.5385 72.9333 42.2832 72.4789 41.8288C72.0245 41.3743 71.7692 40.758 71.7692 40.1154V32.8462H57.2308V40.1154C57.2308 40.758 56.9755 41.3743 56.5211 41.8288C56.0666 42.2832 55.4503 42.5385 54.8077 42.5385C54.1651 42.5385 53.5487 42.2832 53.0943 41.8288C52.6399 41.3743 52.3846 40.758 52.3846 40.1154V30.4231C52.3846 29.7804 52.6399 29.1641 53.0943 28.7097C53.5487 28.2553 54.1651 28 54.8077 28H74.1923C74.8349 28 75.4513 28.2553 75.9057 28.7097C76.3601 29.1641 76.6154 29.7804 76.6154 30.4231V40.1154C76.6154 40.758 76.3601 41.3743 75.9057 41.8288C75.4513 42.2832 74.8349 42.5385 74.1923 42.5385Z" fill="white"></path><path d="M64.5 88.5769C63.8574 88.5769 63.241 88.3216 62.7866 87.8672C62.3322 87.4128 62.0769 86.7965 62.0769 86.1538V52.2308C62.0769 51.5881 62.3322 50.9718 62.7866 50.5174C63.241 50.063 63.8574 49.8077 64.5 49.8077C65.1426 49.8077 65.759 50.063 66.2134 50.5174C66.6678 50.9718 66.9231 51.5881 66.9231 52.2308V86.1538C66.9231 86.7965 66.6678 87.4128 66.2134 87.8672C65.759 88.3216 65.1426 88.5769 64.5 88.5769Z" fill="white"></path><path d="M76.6154 83.7308C75.9727 83.7308 75.3564 83.4755 74.902 83.0211C74.4476 82.5666 74.1923 81.9503 74.1923 81.3077V57.0769C74.1923 56.4343 74.4476 55.818 74.902 55.3635C75.3564 54.9091 75.9727 54.6538 76.6154 54.6538C77.258 54.6538 77.8743 54.9091 78.3288 55.3635C78.7832 55.818 79.0385 56.4343 79.0385 57.0769V81.3077C79.0385 81.9503 78.7832 82.5666 78.3288 83.0211C77.8743 83.4755 77.258 83.7308 76.6154 83.7308Z" fill="white"></path><path d="M52.3846 83.7308C51.742 83.7308 51.1257 83.4755 50.6712 83.0211C50.2168 82.5666 49.9615 81.9503 49.9615 81.3077V57.0769C49.9615 56.4343 50.2168 55.818 50.6712 55.3635C51.1257 54.9091 51.742 54.6538 52.3846 54.6538C53.0272 54.6538 53.6436 54.9091 54.098 55.3635C54.5524 55.818 54.8077 56.4343 54.8077 57.0769V81.3077C54.8077 81.9503 54.5524 82.5666 54.098 83.0211C53.6436 83.4755 53.0272 83.7308 52.3846 83.7308Z" fill="white"></path></svg>