<svg width="412" height="162" viewBox="0 0 412 162" fill="none" xmlns="http://www.w3.org/2000/svg"><g clip-path="url(#clip0)"><path opacity="0.1" d="M134.391 34.1663C123.128 33.7706 112.399 30.097 102.156 26.0769C91.9129 22.0568 81.7673 17.6023 70.7741 15.4727C63.7035 14.1028 55.6165 13.9093 49.9207 17.7395C44.4371 21.4325 42.6655 27.7897 41.7136 33.695C40.9966 38.1372 40.5755 42.8114 42.5402 46.9705C43.9029 49.858 46.3236 52.2849 47.9959 55.0599C53.8206 64.6828 49.7049 76.5496 43.393 85.9457C40.4345 90.3544 36.9975 94.5627 34.7143 99.251C32.4311 103.939 31.373 109.319 33.3709 114.106C35.353 118.854 40.0743 122.413 45.1872 124.919C55.5747 130.01 67.8104 131.466 79.7503 132.291C106.173 134.118 132.734 133.327 159.226 132.536C169.03 132.242 178.877 131.945 188.521 130.413C193.878 129.562 199.407 128.213 203.296 124.953C208.231 120.815 209.455 113.807 206.148 108.619C200.599 99.9158 185.265 97.7545 181.381 88.4129C179.248 83.2726 181.44 77.5467 184.541 72.7775C191.196 62.5496 202.349 53.5756 202.938 41.8847C203.341 33.8533 197.978 25.8131 189.687 22.0128C180.998 18.0156 168.945 18.522 162.538 25.1149C155.935 31.9083 144.335 34.5145 134.391 34.1663Z" fill="#E43C4A"></path><path d="M105.779 131.429L46.2139 131.136L40.2953 117.108L61.2236 115.572L57.5761 100.192L98.9697 94.7702L59.332 80.8458L62.8334 80.0052L126.57 90.5127L123.06 114.515L118.043 127.706L105.779 131.429Z" fill="#E43C4A"></path><path d="M47.1276 125.26C47.1276 125.26 50.7821 124.669 52.9748 127.279C52.9748 127.279 51.3668 128.559 47.9072 126.787L47.1276 125.26Z" fill="#E43C4A"></path><path d="M46.7447 125.202C46.7447 125.202 44.4128 128.102 45.5614 131.331C45.5614 131.331 47.4617 130.562 47.6688 126.648L46.7447 125.202Z" fill="#E43C4A"></path><path d="M44.6494 120.435C44.6494 120.435 46.1112 117.725 51.9585 121.518C51.9585 121.518 51.1788 123.34 48.5963 123.192C46.0138 123.045 45.3316 121.863 44.6494 120.435Z" fill="#E43C4A"></path><path d="M44.2718 120.24C44.2718 120.24 41.2386 119.888 40.9445 126.905C40.9445 126.905 42.8674 127.307 44.2335 125.088C45.5996 122.869 45.0393 121.624 44.2718 120.24Z" fill="#E43C4A"></path><path d="M42.5054 114.642C42.5054 114.642 44.2109 109.866 50.3992 113.263C50.3992 113.263 48.9861 117.646 43.1389 116.267L42.5054 114.642Z" fill="#E43C4A"></path><path d="M40.6051 107.502C40.6051 107.502 43.8211 102.677 49.5222 107.151C49.5222 107.151 47.5243 111.681 41.0924 109.219L40.6051 107.502Z" fill="#E43C4A"></path><path d="M39.9229 100.707C39.9229 100.707 43.6749 96.2737 49.3203 100.707C49.3203 100.707 45.7632 104.597 39.9229 101.84V100.707Z" fill="#E43C4A"></path><path d="M39.3382 94.1072C39.3382 94.1072 43.1389 89.4786 48.5476 93.861C48.5476 93.861 44.2596 97.9479 39.3382 95.1905V94.1072Z" fill="#E43C4A"></path><path d="M39.6793 88.2476C39.6793 88.2476 43.6818 82.2896 48.7425 86.3273C48.7425 86.3273 44.4545 91.4482 39.6793 89.3802V88.2476Z" fill="#E43C4A"></path><path d="M40.6051 81.4033C40.6051 81.4033 44.8444 75.4945 49.7658 80.0246C49.7658 80.0246 44.7469 85.1455 40.6051 82.4866V81.4033Z" fill="#E43C4A"></path><path d="M42.0182 75.2852C42.0182 75.2852 47.037 69.7316 51.4155 71.9439C51.4155 71.9439 46.1861 77.8422 41.7989 76.7589L42.0182 75.2852Z" fill="#E43C4A"></path><path d="M43.7723 69.4854C43.7723 69.4854 49.5639 62.6833 52.933 64.9554C52.933 64.9554 48.6659 70.2311 43.3616 70.7586L43.7723 69.4854Z" fill="#E43C4A"></path><path d="M46.3044 62.7589C46.3044 62.7589 51.3738 57.2053 55.077 58.5841C55.077 58.5841 50.7403 64.3451 45.624 64.4929L46.3044 62.7589Z" fill="#E43C4A"></path><path d="M48.5964 56.4667C48.5964 56.4667 54.2 51.1488 56.6363 52.0844C56.6363 52.0844 52.592 57.9932 48.3527 57.6485L48.5964 56.4667Z" fill="#E43C4A"></path><path d="M50.8378 50.6564C50.8378 50.6564 55.6617 44.3027 58.2948 44.7951C58.2948 44.7951 55.3694 50.4595 50.8378 51.3018V50.6564Z" fill="#E43C4A"></path><path d="M53.2707 42.822C53.2707 42.822 57.5343 37.9525 59.8384 37.9631C59.8384 37.9631 56.4727 44.4698 53.0949 44.41L53.2707 42.822Z" fill="#E43C4A"></path><path d="M54.7116 37.6061L58.8307 27.4626C58.8307 27.4626 59.0361 36.6318 54.1877 39.4877L54.7116 37.6061Z" fill="#E43C4A"></path><path d="M56.384 26.4198C56.384 26.4198 57.0662 17.9487 56.6276 17.2594C56.6276 17.2594 59.5721 24.3025 56.3561 30.162L56.384 26.4198Z" fill="#E43C4A"></path><path d="M42.3453 114.53C42.3453 114.53 38.0748 111.855 35.3095 118.398C35.3095 118.398 39.1102 120.948 42.8483 116.198L42.3453 114.53Z" fill="#E43C4A"></path><path d="M40.4676 107.23C40.4676 107.23 35.2294 104.815 32.6887 111.647C32.6887 111.647 36.7347 114.461 40.9444 108.957L40.4676 107.23Z" fill="#E43C4A"></path><path d="M39.6793 101.113C39.6793 101.113 35.9273 96.68 30.2819 101.113C30.2819 101.113 33.839 105.003 39.6793 102.246V101.113Z" fill="#E43C4A"></path><path d="M39.2094 94.1072C39.2094 94.1072 35.4087 89.4786 30 93.861C30 93.861 34.288 97.9479 39.2094 95.1905V94.1072Z" fill="#E43C4A"></path><path d="M39.6793 88.4165C39.6793 88.4165 37.0132 81.7427 31.2182 84.6127C31.2182 84.6127 34.3507 90.5303 39.4426 89.5244L39.6793 88.4165Z" fill="#E43C4A"></path><path d="M40.941 81.3699C40.941 81.3699 38.2906 74.58 32.4138 77.7279C32.4138 77.7279 36.0126 83.9514 40.68 82.418L40.941 81.3699Z" fill="#E43C4A"></path><path d="M42.5838 75.3186C42.5838 75.3186 41.5396 67.8746 36.6669 67.2081C36.6669 67.2081 37.7006 75.0584 41.9277 76.6604L42.5838 75.3186Z" fill="#E43C4A"></path><path d="M43.8959 69.4995C43.8959 69.4995 43.4887 60.5308 39.46 60.2178C39.46 60.2178 39.5958 67.0252 43.4417 70.7692L43.8959 69.4995Z" fill="#E43C4A"></path><path d="M46.7221 62.5074C46.7221 62.5074 45.5213 55.0493 41.6754 54.1384C41.6754 54.1384 42.1522 61.3608 46.341 64.3381L46.7221 62.5074Z" fill="#E43C4A"></path><path d="M49.0523 56.5283C49.0523 56.5283 49.0123 48.7589 46.6629 47.6176C46.6629 47.6176 45.2063 54.6519 48.3718 57.5201L49.0523 56.5283Z" fill="#E43C4A"></path><path d="M51.017 50.5685C51.017 50.5685 50.6881 42.5688 48.2553 41.4415C48.2553 41.4415 47.4234 47.7724 50.6533 51.0925L51.017 50.5685Z" fill="#E43C4A"></path><path d="M53.61 43.4603C53.61 43.4603 53.5961 36.9536 51.8593 35.4272C51.8593 35.4272 50.133 42.5547 52.7033 44.7687L53.61 43.4603Z" fill="#E43C4A"></path><path d="M54.508 37.286L52.8182 26.4567C52.8182 26.4567 50.5228 35.3305 54.588 39.2415L54.508 37.286Z" fill="#E43C4A"></path><path d="M54.8369 26.5218C54.8369 26.5218 50.5002 19.2413 50.5889 18.4323C50.5889 18.4323 51.0501 26.0628 56.5058 29.8631L54.8369 26.5218Z" fill="#E43C4A"></path><path d="M55.345 24.3711C55.345 24.3711 51.252 14.0307 49.4003 13.1936C49.4003 13.1936 55.2476 16.1972 55.6861 24.0756L55.345 24.3711Z" fill="#E43C4A"></path><path d="M53.074 44.4715L52.7938 44.3853C56.2482 33.0021 57.1096 25.7445 55.2215 23.9244L55.4216 23.7098C57.4246 25.6302 56.6119 32.8087 53.074 44.4715Z" fill="#444053"></path><path d="M43.5618 71.1244L43.1476 70.975C43.5148 69.9321 43.9098 68.8735 44.324 67.8306C47.9298 58.7494 50.9996 50.3012 52.9678 43.8156L53.3281 43.6397C51.3564 50.1376 48.3405 58.9094 44.7312 68.003C44.3188 69.0265 43.9255 70.0798 43.5618 71.1244Z" fill="#444053"></path><path d="M52.277 133.779C52.2213 133.717 46.6229 127.346 42.7195 116.469C40.4324 110.101 39.1595 103.407 38.9484 96.636C38.6804 88.172 40.438 78.7215 43.4487 70.1361L43.7759 70.523C37.0167 89.7917 39.7019 106.303 43.2642 116.246C47.1258 127.024 52.6616 133.325 52.7155 133.388L52.277 133.779Z" fill="#444053"></path><path d="M139.763 120.252C139.763 120.252 135.818 125.118 138.95 132.474L107.452 146.279L104.429 146.919L103.037 140.764L103.968 132.996V128.751L139.763 120.252Z" fill="#D5D6DB"></path><path d="M40.2953 117.108L83.8922 109.076L141.66 118.375L105.779 131.429L40.2953 117.108Z" fill="#E43C4A"></path><path d="M40.2953 117.108L83.8922 109.076L141.66 118.375L105.779 131.429L40.2953 117.108Z" fill="#E43C4A"></path><path d="M40.2953 117.106C40.2953 117.106 36.2179 124.912 40.9166 132.122L105.567 146.279C105.567 146.279 101.554 140.06 105.774 131.429L40.2953 117.106Z" fill="#E43C4A"></path><path opacity="0.1" d="M40.2953 117.106C40.2953 117.106 36.2179 124.912 40.9166 132.122L105.567 146.279C105.567 146.279 101.554 140.06 105.774 131.429L40.2953 117.106Z" fill="black"></path><path opacity="0.1" d="M42.2218 119.812C42.2218 119.812 39.8916 125.524 42.2218 129.221Z" fill="black"></path><path d="M105.567 146.279L141.66 130.715C141.66 130.715 143.679 131.155 142.373 132.65C141.068 134.145 106.263 147.774 106.263 147.774L40.9166 132.122L105.567 146.279Z" fill="#E43C4A"></path><path opacity="0.1" d="M105.567 146.279L141.66 130.715C141.66 130.715 143.679 131.155 142.373 132.65C141.068 134.145 106.263 147.774 106.263 147.774L40.9166 132.122L105.567 146.279Z" fill="black"></path><path opacity="0.1" d="M102.609 133.002C102.609 133.002 99.128 137.222 102.609 143.553Z" fill="black"></path><path opacity="0.1" d="M119.459 132.93L103.847 138.193L103.902 138.36L119.514 133.097L119.459 132.93Z" fill="black"></path><path opacity="0.1" d="M122.586 132.406L103.842 139.609L103.904 139.773L122.648 132.571L122.586 132.406Z" fill="black"></path><path opacity="0.1" d="M125.458 132.381L103.947 141.278L104.013 141.441L125.524 132.544L125.458 132.381Z" fill="black"></path><path opacity="0.1" d="M128.58 131.619L104.198 142.749L104.27 142.91L128.652 131.78L128.58 131.619Z" fill="black"></path><path opacity="0.1" d="M131.204 131.623L104.391 143.466L104.461 143.627L131.274 131.784L131.204 131.623Z" fill="black"></path><path opacity="0.1" d="M136.942 130.638L104.795 144.669L104.864 144.83L137.011 130.8L136.942 130.638Z" fill="black"></path><path opacity="0.3" d="M56.4919 117.966L87.1203 111.459L105.779 115.064L80.6814 123.241L56.4919 117.966Z" fill="white"></path><path d="M141.66 118.375C141.66 118.375 143.243 119.021 142.314 120.018C141.385 121.015 105.774 131.429 105.774 131.429L141.66 118.375Z" fill="#E43C4A"></path><path d="M157.042 103.338C157.042 103.338 153.099 108.202 156.231 115.56L124.732 129.365L121.71 130.008L120.317 123.853L121.262 116.088V111.837L157.042 103.338Z" fill="#D5D6DB"></path><path d="M57.576 100.192L101.171 92.1622L158.941 101.462L123.06 114.515L57.576 100.192Z" fill="#3A3768"></path><path d="M57.5691 100.192C57.5691 100.192 53.4899 107.998 58.1886 115.208L122.839 129.365C122.839 129.365 118.828 123.141 123.053 114.514L57.5691 100.192Z" fill="#3A3768"></path><path opacity="0.1" d="M57.5691 100.192C57.5691 100.192 53.4899 107.998 58.1886 115.208L122.839 129.365C122.839 129.365 118.828 123.141 123.053 114.514L102.609 110.042L57.5691 100.192Z" fill="black"></path><path opacity="0.1" d="M59.5007 102.898C59.5007 102.898 57.1723 108.608 59.5007 112.307Z" fill="black"></path><path d="M122.846 129.365L158.941 113.801C158.941 113.801 160.957 114.241 159.652 115.736C158.347 117.231 123.542 130.86 123.542 130.86L58.1956 115.208L122.846 129.365Z" fill="#3A3768"></path><path opacity="0.1" d="M122.846 129.365L158.941 113.801C158.941 113.801 160.957 114.241 159.652 115.736C158.347 117.231 123.542 130.86 123.542 130.86L58.1956 115.208L122.846 129.365Z" fill="black"></path><path opacity="0.1" d="M119.888 116.088C119.888 116.088 116.407 120.308 119.888 126.639Z" fill="black"></path><path opacity="0.1" d="M136.739 116.018L121.128 121.281L121.183 121.448L136.794 116.185L136.739 116.018Z" fill="black"></path><path opacity="0.1" d="M139.868 115.494L121.125 122.696L121.187 122.86L139.93 115.658L139.868 115.494Z" fill="black"></path><path opacity="0.1" d="M142.738 115.466L121.227 124.363L121.293 124.526L142.803 115.629L142.738 115.466Z" fill="black"></path><path opacity="0.1" d="M145.862 114.704L121.48 125.834L121.552 125.995L145.934 114.865L145.862 114.704Z" fill="black"></path><path opacity="0.1" d="M148.483 114.706L121.671 126.549L121.74 126.71L148.553 114.867L148.483 114.706Z" fill="black"></path><path opacity="0.1" d="M154.223 113.721L122.076 127.752L122.145 127.913L154.292 113.882L154.223 113.721Z" fill="black"></path><path opacity="0.45" d="M73.7726 101.052L104.401 94.5451L123.06 98.1502L97.9621 106.328L73.7726 101.052Z" fill="white"></path><path d="M158.941 101.462C158.941 101.462 160.522 102.107 159.595 103.102C158.667 104.098 123.06 114.514 123.06 114.514L158.941 101.462Z" fill="#3A3768"></path><path d="M158.678 83.9884C158.678 83.9884 154.733 92.7232 157.865 100.079L126.366 110.015L123.351 110.661L121.958 104.506L122.889 96.738V92.4876L158.678 83.9884Z" fill="#D5D6DB"></path><path d="M59.2171 80.8441L102.814 72.8127L160.583 82.112L124.701 95.1659L59.2171 80.8441Z" fill="#E43C4A"></path><path d="M59.2171 80.8423C59.2171 80.8423 55.1328 88.6486 59.8314 95.8588L124.482 110.015C124.482 110.015 120.469 103.792 124.694 95.1659L59.2171 80.8423Z" fill="#E43C4A"></path><path opacity="0.1" d="M59.2171 80.8423C59.2171 80.8423 55.1328 88.6486 59.8314 95.8588L124.482 110.015C124.482 110.015 120.469 103.792 124.694 95.1659L59.2171 80.8423Z" fill="black"></path><path opacity="0.1" d="M61.1436 83.5487C61.1436 83.5487 58.8134 89.2606 61.1436 92.9571Z" fill="black"></path><path d="M124.489 110.015L160.582 98.3207C160.582 98.3207 162.6 98.7604 161.295 100.255C159.99 101.75 125.185 111.51 125.185 111.51L59.8384 95.8587L124.489 110.015Z" fill="#E43C4A"></path><path opacity="0.1" d="M124.489 110.015L160.582 98.3207C160.582 98.3207 162.6 98.7604 161.295 100.255C159.99 101.75 125.185 111.51 125.185 111.51L59.8384 95.8587L124.489 110.015Z" fill="black"></path><path opacity="0.1" d="M121.53 96.738C121.53 96.738 118.05 100.959 121.53 107.289Z" fill="black"></path><path opacity="0.1" d="M138.383 96.6682L122.771 101.931L122.826 102.098L138.438 96.835L138.383 96.6682Z" fill="black"></path><path opacity="0.1" d="M141.51 96.1445L122.767 103.347L122.829 103.511L141.572 96.3088L141.51 96.1445Z" fill="black"></path><path opacity="0.1" d="M144.378 96.1177L122.867 105.015L122.933 105.178L144.444 96.2804L144.378 96.1177Z" fill="black"></path><path opacity="0.1" d="M147.505 95.3546L123.123 106.485L123.195 106.645L147.577 95.5148L147.505 95.3546Z" fill="black"></path><path opacity="0.1" d="M150.127 95.3576L123.314 107.201L123.384 107.362L150.197 95.5188L150.127 95.3576Z" fill="black"></path><path opacity="0.1" d="M155.866 94.374L123.719 108.405L123.788 108.566L155.935 94.5354L155.866 94.374Z" fill="black"></path><path opacity="0.3" d="M75.4136 81.7022L106.042 75.1955L124.701 78.8006L99.6031 86.978L75.4136 81.7022Z" fill="white"></path><path d="M160.582 82.112C160.582 82.112 162.165 82.7574 161.236 83.7545C160.307 84.7516 124.701 95.1659 124.701 95.1659L160.582 82.112Z" fill="#E43C4A"></path><path d="M84.0209 28.7288C84.0209 28.7288 77.408 28.3261 78.1807 33.0144C78.1807 33.0144 78.0258 33.8427 78.7689 34.219C78.7689 34.219 78.781 33.8673 79.4476 33.9887C79.6854 34.03 79.9273 34.0418 80.168 34.0238C80.4925 34.0014 80.8009 33.873 81.0469 33.6581V33.6581C81.0469 33.6581 82.9072 32.8808 83.6311 29.8068C83.6311 29.8068 84.1671 29.1368 84.1532 28.9644L83.0325 29.4463C83.0325 29.4463 83.4136 30.2605 83.1143 30.9375C83.1143 30.9375 83.0777 29.4762 82.8619 29.5096C82.8184 29.5096 82.2824 29.7927 82.2824 29.7927C82.2824 29.7927 82.9385 31.2119 82.4425 32.2424C82.4425 32.2424 82.6305 30.4944 82.0771 29.8947L81.2905 30.359C81.2905 30.359 82.0579 31.8239 81.5376 33.0197C81.5376 33.0197 81.6716 31.1855 81.1252 30.4715L80.4117 31.0343C80.4117 31.0343 81.1339 32.4781 80.6936 33.4699C80.6936 33.4699 80.6362 31.335 80.2585 31.1732C80.2585 31.1732 79.6338 31.7289 79.5398 31.9575C79.5398 31.9575 80.034 33.0127 79.726 33.5596C79.726 33.5596 79.5398 32.1369 79.3779 32.1299C79.3779 32.1299 78.7567 33.0725 78.6923 33.7126C78.7224 33.1158 78.9066 32.5374 79.2265 32.0349C78.8685 32.1034 78.5381 32.2764 78.2764 32.5326C78.2764 32.5326 78.3721 31.8661 79.3814 31.808C79.3814 31.808 79.8948 31.0923 80.0323 31.0501C80.0323 31.0501 79.0282 30.9639 78.4208 31.2365C78.4208 31.2365 78.9568 30.6087 80.215 30.8848L80.9111 30.3045C80.9111 30.3045 79.592 30.1286 79.0316 30.3238C79.0316 30.3238 79.6773 29.7681 81.1008 30.1726L81.8683 29.7101C81.8683 29.7101 80.7423 29.4656 80.0723 29.5536C80.0723 29.5536 80.7789 29.1684 82.0927 29.5852L82.6392 29.3372C82.6392 29.3372 81.816 29.1737 81.5741 29.1473C81.3323 29.1209 81.3201 29.0541 81.3201 29.0541C81.8425 28.9674 82.3785 29.0283 82.8689 29.23C82.8689 29.23 84.0436 28.8026 84.0209 28.7288Z" fill="#E43C4A"></path><path opacity="0.1" d="M177.055 47.9992C177.055 47.9992 170.442 47.5965 171.215 52.2849C171.215 52.2849 171.06 53.1131 171.803 53.4895C171.803 53.4895 171.815 53.1378 172.481 53.2591C172.719 53.2994 172.961 53.3112 173.202 53.2943C173.523 53.2703 173.829 53.142 174.072 52.9285V52.9285C174.072 52.9285 175.934 52.1512 176.656 49.0772C176.656 49.0772 177.192 48.4072 177.178 48.2349L176.061 48.7167C176.061 48.7167 176.442 49.5309 176.143 50.208C176.143 50.208 176.106 48.7466 175.892 48.78C175.849 48.78 175.311 49.0632 175.311 49.0632C175.311 49.0632 175.967 50.4823 175.473 51.5128C175.473 51.5128 175.661 49.7648 175.106 49.1652L174.319 49.6294C174.319 49.6294 175.087 51.0943 174.566 52.2901C174.566 52.2901 174.7 50.4559 174.154 49.742L173.442 50.3047C173.442 50.3047 174.163 51.7485 173.722 52.7403C173.722 52.7403 173.665 50.6054 173.287 50.4436C173.287 50.4436 172.664 50.9993 172.568 51.228C172.568 51.228 173.063 52.2831 172.756 52.83C172.756 52.83 172.568 51.4073 172.408 51.4003C172.408 51.4003 171.787 52.3429 171.723 52.983C171.753 52.386 171.938 51.8074 172.259 51.3053C171.9 51.374 171.569 51.5469 171.307 51.803C171.307 51.803 171.404 51.1365 172.412 51.0785C172.412 51.0785 172.925 50.3627 173.063 50.3188C173.063 50.3188 172.06 50.2344 171.451 50.5069C171.451 50.5069 171.987 49.8791 173.245 50.1552L173.942 49.5749C173.942 49.5749 172.621 49.399 172.062 49.5942C172.062 49.5942 172.706 49.0385 174.131 49.443L174.897 48.9805C174.897 48.9805 173.771 48.7361 173.101 48.824C173.101 48.824 173.808 48.4389 175.121 48.8556L175.67 48.6077C175.67 48.6077 174.845 48.4441 174.603 48.4178C174.361 48.3914 174.349 48.3246 174.349 48.3246C174.871 48.2367 175.407 48.2976 175.898 48.5004C175.898 48.5004 177.076 48.0731 177.055 47.9992Z" fill="#E43C4A"></path><path opacity="0.1" d="M95.1585 57.6925C95.1585 57.6925 92.2767 51.6553 88.6082 54.6308C88.6082 54.6308 87.8164 54.8981 87.8547 55.7369C87.8547 55.7369 88.1592 55.5769 88.3768 56.2241C88.458 56.4528 88.5655 56.6712 88.697 56.8747C88.875 57.1506 89.1371 57.3605 89.4435 57.4727C89.4435 57.4727 91.0219 58.7353 94.0308 57.8736C94.0308 57.8736 94.8714 58.0196 95.0089 57.9176L94.0482 57.1667C94.0482 57.1667 93.5262 57.9 92.7987 57.9651C92.7987 57.9651 94.0448 57.2212 93.9108 57.0488C93.8829 57.0137 93.3887 56.6743 93.3887 56.6743C93.3887 56.6743 92.482 57.9457 91.3508 58.0108C91.3508 58.0108 92.9519 57.3249 93.199 56.5424L92.4159 56.0746C92.4159 56.0746 91.5231 57.4674 90.2371 57.5905C90.2371 57.5905 91.8868 56.8149 92.2366 55.9849L91.4048 55.6332C91.4048 55.6332 90.5086 56.9732 89.4366 57.0699C89.4366 57.0699 91.2534 55.9779 91.2081 55.5646C91.2081 55.5646 90.4233 55.2867 90.1797 55.3131C90.1797 55.3131 89.5149 56.261 88.8884 56.261C88.8884 56.261 90.0248 55.401 89.9552 55.2621C89.9552 55.2621 88.8379 55.1742 88.2497 55.438C88.7797 55.1718 89.3695 55.0505 89.9604 55.0863C89.726 54.8038 89.4151 54.5966 89.0659 54.4901C89.0659 54.4901 89.6889 54.2509 90.2301 55.1109C90.2301 55.1109 91.1002 55.2146 91.2029 55.3149C91.2029 55.3149 90.787 54.3899 90.2562 53.9872C90.2562 53.9872 91.0602 54.1507 91.4274 55.394L92.2714 55.7317C92.2714 55.7317 91.7859 54.4796 91.3387 54.0839C91.3387 54.0839 92.1322 54.3811 92.4785 55.8425L93.2512 56.2926C93.2512 56.2926 92.9153 55.1795 92.5116 54.6326C92.5116 54.6326 93.1886 55.0687 93.4687 56.4298L93.9508 56.7921C93.9508 56.7921 93.6897 55.9849 93.6027 55.7598C93.5157 55.5347 93.5592 55.489 93.5592 55.489C93.8903 55.9065 94.1 56.4088 94.1648 56.9398C94.1648 56.9398 95.0959 57.7452 95.1585 57.6925Z" fill="#E43C4A"></path><path opacity="0.1" d="M161.946 39.4701C161.946 39.4701 159.066 33.433 155.396 36.4085C155.396 36.4085 154.606 36.6758 154.642 37.5146C154.642 37.5146 154.948 37.3563 155.164 38.0017C155.245 38.2314 155.353 38.4505 155.486 38.6542C155.664 38.9295 155.925 39.1389 156.231 39.2503V39.2503C156.231 39.2503 157.811 40.513 160.818 39.653C160.818 39.653 161.659 39.7972 161.798 39.6952L160.843 38.9426C160.843 38.9426 160.321 39.6777 159.595 39.7427C159.595 39.7427 160.839 38.9971 160.705 38.8248C160.677 38.7896 160.183 38.4502 160.183 38.4502C160.183 38.4502 159.278 39.7216 158.145 39.7867C158.145 39.7867 159.748 39.1008 159.995 38.32L159.2 37.8558C159.2 37.8558 158.309 39.2468 157.021 39.3717C157.021 39.3717 158.671 38.5944 159.022 37.7643L158.189 37.4126C158.189 37.4126 157.293 38.7544 156.222 38.8494C156.222 38.8494 158.037 37.7573 157.992 37.3458C157.992 37.3458 157.209 37.0662 156.965 37.0943C156.965 37.0943 156.301 38.0404 155.672 38.0404C155.672 38.0404 156.81 37.1805 156.741 37.0416C156.741 37.0416 155.624 36.9536 155.034 37.2174C155.564 36.9511 156.153 36.8299 156.744 36.8657C156.511 36.5831 156.2 36.3758 155.852 36.2695C155.852 36.2695 156.475 36.0304 157.016 36.8903C157.016 36.8903 157.886 36.9958 157.989 37.0961C157.989 37.0961 157.573 36.1693 157.04 35.7666C157.04 35.7666 157.844 35.9319 158.211 37.1822L159.057 37.5199C159.057 37.5199 158.572 36.266 158.124 35.8703C158.124 35.8703 158.918 36.1675 159.262 37.6289L160.037 38.0791C160.037 38.0791 159.699 36.9677 159.296 36.419C159.296 36.419 159.974 36.8551 160.253 38.2163L160.735 38.5785C160.735 38.5785 160.475 37.7714 160.387 37.5463C160.298 37.3212 160.343 37.2772 160.343 37.2772C160.673 37.6951 160.882 38.1973 160.947 38.728C160.947 38.728 161.892 39.5264 161.946 39.4701Z" fill="#E43C4A"></path><path opacity="0.1" d="M171.15 69.3324C171.15 69.3324 168.27 63.2935 164.595 66.269C164.595 66.269 163.805 66.5363 163.841 67.3752C163.841 67.3752 164.147 67.2169 164.363 67.8623C164.444 68.0919 164.551 68.3109 164.683 68.5147C164.861 68.7901 165.122 68.9994 165.428 69.1109C165.428 69.1109 167.008 70.3753 170.017 69.5136C170.017 69.5136 170.856 69.6595 170.995 69.5558L170.035 68.8049C170.035 68.8049 169.513 69.54 168.785 69.605C168.785 69.605 170.029 68.8594 169.895 68.687C169.868 68.6519 169.373 68.3125 169.373 68.3125C169.373 68.3125 168.468 69.5839 167.336 69.6507C167.336 69.6507 168.938 68.9631 169.185 68.1823L168.401 67.7146C168.401 67.7146 167.51 69.1073 166.222 69.2304C166.222 69.2304 167.872 68.4532 168.223 67.6231L167.389 67.2714C167.389 67.2714 166.493 68.6114 165.423 68.7082C165.423 68.7082 167.24 67.6161 167.195 67.2028C167.195 67.2028 166.41 66.9232 166.166 66.9513C166.166 66.9513 165.501 67.8974 164.873 67.8974C164.873 67.8974 166.011 67.0375 165.942 66.8986C165.942 66.8986 164.824 66.8106 164.234 67.0744C164.765 66.8083 165.355 66.6871 165.947 66.7227C165.713 66.4397 165.402 66.2323 165.052 66.1266C165.052 66.1266 165.675 65.8856 166.217 66.7473C166.217 66.7473 167.087 66.8511 167.189 66.9513C167.189 66.9513 166.773 66.0263 166.243 65.6219C166.243 65.6219 167.047 65.7872 167.414 67.0375L168.258 67.3752C168.258 67.3752 167.772 66.1213 167.325 65.7274C167.325 65.7274 168.119 66.0228 168.463 67.4859L169.238 67.9344C169.238 67.9344 168.9 66.823 168.496 66.2743C168.496 66.2743 169.175 66.7104 169.455 68.0733L169.937 68.425C169.937 68.425 169.676 67.6178 169.589 67.3927C169.502 67.1676 169.546 67.1237 169.546 67.1237C169.877 67.5411 170.086 68.0435 170.15 68.5745C170.15 68.5745 171.096 69.3852 171.15 69.3324Z" fill="#E43C4A"></path><path opacity="0.1" d="M65.1444 147.9C67.354 147.9 69.1452 147.698 69.1452 147.448C69.1452 147.199 67.354 146.996 65.1444 146.996C62.9348 146.996 61.1436 147.199 61.1436 147.448C61.1436 147.698 62.9348 147.9 65.1444 147.9Z" fill="#E43C4A"></path><path opacity="0.1" d="M38.917 140.219C41.1266 140.219 42.9179 140.016 42.9179 139.767C42.9179 139.517 41.1266 139.315 38.917 139.315C36.7074 139.315 34.9162 139.517 34.9162 139.767C34.9162 140.016 36.7074 140.219 38.917 140.219Z" fill="#E43C4A"></path><path opacity="0.1" d="M85.1364 153.002C87.346 153.002 89.1372 152.799 89.1372 152.55C89.1372 152.3 87.346 152.098 85.1364 152.098C82.9268 152.098 81.1356 152.3 81.1356 152.55C81.1356 152.799 82.9268 153.002 85.1364 153.002Z" fill="#E43C4A"></path><path opacity="0.1" d="M187.585 141.889C189.795 141.889 191.586 141.687 191.586 141.437C191.586 141.188 189.795 140.985 187.585 140.985C185.375 140.985 183.584 141.188 183.584 141.437C183.584 141.687 185.375 141.889 187.585 141.889Z" fill="#E43C4A"></path><path opacity="0.1" d="M154.292 139.696C156.502 139.696 158.293 139.494 158.293 139.244C158.293 138.995 156.502 138.793 154.292 138.793C152.083 138.793 150.291 138.995 150.291 139.244C150.291 139.494 152.083 139.696 154.292 139.696Z" fill="#E43C4A"></path><path opacity="0.1" d="M132.755 150.392C135.368 150.392 137.487 150.024 137.487 149.571C137.487 149.117 135.368 148.75 132.755 148.75C130.142 148.75 128.023 149.117 128.023 149.571C128.023 150.024 130.142 150.392 132.755 150.392Z" fill="#E43C4A"></path><path d="M134.866 141.316C134.866 141.316 128.277 144.756 131.681 148.808C131.681 148.808 132.001 149.687 132.927 149.625C132.927 149.625 132.743 149.284 133.449 149.012C133.701 148.913 133.94 148.785 134.161 148.63C134.46 148.421 134.684 148.119 134.798 147.77V147.77C134.798 147.77 136.145 145.948 135.101 142.577C135.101 142.577 135.237 141.624 135.118 141.469L134.318 142.579C134.318 142.579 135.144 143.14 135.24 143.964C135.24 143.964 134.37 142.58 134.196 142.733C134.158 142.765 133.799 143.34 133.799 143.34C133.799 143.34 135.233 144.323 135.339 145.6C135.339 145.6 134.532 143.811 133.66 143.556L133.16 144.457C133.16 144.457 134.727 145.421 134.901 146.87C134.901 146.87 133.991 145.032 133.061 144.661L132.694 145.612C132.694 145.612 134.205 146.583 134.344 147.789C134.344 147.789 133.08 145.772 132.626 145.836C132.626 145.836 132.341 146.729 132.379 147.005C132.379 147.005 133.446 147.726 133.465 148.435C133.465 148.435 132.48 147.177 132.329 147.26C132.329 147.26 132.266 148.524 132.569 149.182C132.569 149.182 132.047 148.243 132.132 147.26C131.827 147.533 131.607 147.89 131.5 148.287C131.5 148.287 131.217 147.592 132.151 146.952C132.151 146.952 132.24 145.969 132.348 145.848C132.348 145.848 131.337 146.347 130.907 146.959C130.907 146.959 131.065 146.047 132.436 145.593L132.785 144.629C132.785 144.629 131.413 145.217 130.99 145.734C130.99 145.734 131.295 144.828 132.892 144.394L133.366 143.514C133.366 143.514 132.148 143.929 131.552 144.394C131.552 144.394 132.014 143.615 133.512 143.256L133.897 142.702C133.897 142.702 133.012 143.02 132.765 143.134C132.518 143.249 132.47 143.192 132.47 143.192C132.921 142.806 133.47 142.554 134.055 142.464C134.055 142.464 134.927 141.376 134.866 141.316Z" fill="#E43C4A"></path><path d="M154.421 76.3491C153.283 73.2242 147.018 72.9305 144.3 73.7271C142.368 74.2951 138.296 74.9352 136.121 75.2571L135.98 75.1217C136.262 75.0372 136.269 74.8297 136.234 74.522C136.213 74.1164 136.219 73.7099 136.251 73.305C137.584 73.7236 138.771 72.7335 138.771 72.7335C140.337 72.0301 139.916 69.0194 140.215 68.1964C140.44 67.5809 140.682 63.9547 140.79 62.1469H140.812L140.824 61.5402C140.84 61.2782 140.847 61.1252 140.847 61.1252C140.847 61.1252 141 56.7041 141.3 55.809C141.578 54.986 141.804 50.8393 141.839 50.1816C141.839 50.1253 141.839 50.0954 141.839 50.0954L141.816 49.7121C141.832 49.4324 141.839 49.1212 141.837 48.7941C141.837 47.2905 141.682 45.3965 141.663 45.0905C141.663 45.0466 141.663 44.9938 141.663 44.9305C141.675 44.2886 141.595 41.074 138.889 39.8588C137.892 39.4086 136.693 38.8722 135.532 38.3499C135.233 35.7384 134.549 33.141 134.608 30.5102C134.608 30.1145 134.643 29.7189 134.681 29.3249C134.681 29.4392 134.669 29.5553 134.667 29.6766C134.667 29.9316 134.667 30.1884 134.667 30.4434C134.77 27.1531 136.001 23.8452 135.886 20.6253C135.875 20.9401 135.853 21.2566 135.823 21.5732C135.883 20.484 135.77 19.3922 135.489 18.3391C135.384 17.9681 135.244 17.5847 134.942 17.3368C134.658 17.1371 134.332 17.0065 133.989 16.9551C133.165 16.7421 132.329 16.5847 131.485 16.4838C131.356 16.0871 131.166 15.7136 130.921 15.3777C129.156 12.9298 126.542 10.6296 123.452 10.102C121.901 9.8382 120.117 10.058 119.063 11.1782C118.953 11.2766 118.849 11.3824 118.753 11.4948C118.186 12.1789 117.942 13.0775 117.361 13.7598C117.322 13.8055 117.279 13.8477 117.237 13.8917C116.099 14.9205 114.326 15.135 113.061 16.0583C112.838 16.224 112.629 16.4081 112.436 16.6087C111.926 17.1192 111.469 17.6807 111.071 18.2846C110.502 19.0936 109.918 19.9359 109.737 20.9014C109.373 22.8358 110.676 24.67 110.918 26.6167C111.458 30.9727 106.688 34.8381 107.591 39.136C107.832 40.1919 108.364 41.1571 109.126 41.9198C107.265 43.6221 105.682 45.2734 105.682 45.2734V45.3719H105.388L105.417 45.7236H105.388L105.55 47.6317L105.388 50.4102C105.388 50.4102 105.388 50.4401 105.388 50.4964V50.5104V50.5861C105.388 50.5861 105.388 50.616 105.388 50.6722H105.398C105.452 51.6905 105.666 55.3518 105.92 56.1238C106.22 57.0189 106.371 61.44 106.371 61.44C106.371 61.44 106.702 67.6882 107.004 68.5147C107.307 69.3412 106.877 72.3431 108.449 73.0518C108.909 73.4082 109.453 73.6362 110.027 73.713C109.947 74.3707 109.998 74.8473 110.257 74.9968C110.368 75.0627 110.494 75.099 110.622 75.1023C110.516 75.2621 110.421 75.4296 110.339 75.6035C109.715 75.5377 109.102 75.3917 108.515 75.1691C106.827 74.4657 101.225 72.883 99.5979 73.9962C97.9708 75.1093 94.0552 76.1188 95.8633 80.5996C97.6714 85.0804 98.5137 85.193 98.5137 85.193C99.0703 85.6013 99.5585 86.097 99.9599 86.6614C100.503 87.4862 105.562 89.3731 106.827 89.3731C107.365 89.3647 107.902 89.3918 108.437 89.454C108.437 89.454 107.064 90.6709 107.246 91.3779C107.429 92.0848 106.829 97.7439 106.829 97.7439C106.829 97.7439 108.221 99.1613 108.816 97.3025L108.837 97.3307C108.948 97.4837 109.55 98.1748 110.683 97.3025C111.147 96.9471 111.639 96.6317 112.156 96.3599L117.641 95.5756C118.213 95.5395 118.786 95.5354 119.358 95.5633C120.229 95.6354 121.083 95.1149 121.621 94.7121C122.757 95.1483 124.035 95.6248 124.642 95.7989C125.874 96.1507 131.537 97.6859 132.861 97.2058C133.136 97.0952 133.381 96.919 133.575 96.6923L134.838 96.7327L134.246 96.8523C134.246 96.8523 135.398 96.8717 136.965 96.8928L136.898 96.9315L138.863 96.9139C141.738 96.9403 144.968 96.949 145.393 96.8523C146.057 96.7028 149.512 96.8084 150.53 96.8523H150.814C150.814 96.8523 154.609 96.0873 153.043 92.1956C151.839 89.2061 148.137 88.3373 146.494 88.0982C146.957 88.0049 147.356 87.9328 147.62 87.8906C148.767 87.7148 150.995 86.6596 151.176 86.2991C151.357 85.9386 153.224 84.8923 153.706 84.2961C154.188 83.7 155.564 79.4741 154.421 76.3491ZM122.983 85.0945L122.797 85.1561L122.672 85.1983L122.432 85.4374C122.24 85.3073 122.035 85.1701 121.821 85.0294C122.199 85.0523 122.587 85.0752 122.983 85.0945Z" fill="url(#paint0_linear)"></path><path d="M134.079 66.5521C134.079 66.5521 136.742 73.5864 138.256 72.883C139.77 72.1796 139.359 69.19 139.648 68.3705C139.937 67.551 140.257 61.3362 140.257 61.3362C140.257 61.3362 140.403 56.9398 140.692 56.0499C140.96 55.2322 141.178 51.1084 141.214 50.4594C141.214 50.4032 141.214 50.3733 141.214 50.3733L140.927 45.2734L139.302 44.8637L135.532 46.2705L135.01 49.283L134.807 50.4594L134.72 50.9606L134.079 66.5521Z" fill="#BE6F72"></path><path opacity="0.1" d="M134.956 65.3739C134.956 65.3739 137.497 67.4754 138.263 67.66C139.029 67.8447 139.498 69.4837 139.498 69.4837" fill="black"></path><path d="M113.257 66.8599C113.257 66.8599 110.595 73.8942 109.081 73.1908C107.567 72.4873 107.977 69.4978 107.688 68.6783C107.399 67.8588 107.079 61.644 107.079 61.644C107.079 61.644 106.933 57.2475 106.644 56.3577C106.376 55.54 106.159 51.4161 106.122 50.7672C106.122 50.7109 106.122 50.681 106.122 50.681L106.411 45.5812L108.036 45.1714L111.806 46.5783L112.328 49.5907L112.531 50.7672L112.618 51.2684L113.257 66.8599Z" fill="#BE6F72"></path><path d="M130.595 29.2159H124.652V38.5768H130.595V29.2159Z" fill="#3E373A"></path><path opacity="0.1" d="M130.595 29.2159H124.652V38.5768H130.595V29.2159Z" fill="black"></path><path d="M112.213 73.866C112.213 73.866 110.182 76.1223 110.936 76.532C111.689 76.9418 116.564 84.6215 116.564 84.6215C116.564 84.6215 132.574 86.6139 135.593 83.6243C138.613 80.6348 138.552 75.294 138.552 75.294C138.552 75.294 136.126 75.8216 135.861 75.5349C135.597 75.2483 134.144 73.866 134.144 73.866C134.144 73.866 113.605 72.6069 112.213 73.866Z" fill="#4B4B5B"></path><path opacity="0.02" d="M112.213 73.866C112.213 73.866 110.182 76.1223 110.936 76.532C111.689 76.9418 116.564 84.6215 116.564 84.6215C116.564 84.6215 132.574 86.6139 135.593 83.6243C138.613 80.6348 138.552 75.294 138.552 75.294C138.552 75.294 136.126 75.8216 135.861 75.5349C135.597 75.2483 134.144 73.866 134.144 73.866C134.144 73.866 113.605 72.6069 112.213 73.866Z" fill="black"></path><path d="M141.035 45.3473L135.814 49.5679L134.236 49.6839L133.656 49.7261L123.923 50.4471L113.83 49.7015L112.328 49.5907L110.414 49.45L106.411 45.5812C106.411 45.5812 109.244 42.5142 111.726 40.4444C112.704 39.6266 113.628 38.9654 114.301 38.7052L114.416 38.6647C114.84 38.4978 115.218 38.2313 115.519 37.8874C117.479 35.8457 119.291 30.8074 119.291 30.8074C119.291 30.8074 127.934 26.2949 126.89 32.2143C125.846 38.1336 130.776 36.6705 130.776 36.6705L132.402 37.4196L133.044 37.7168L134.681 38.4748L138.376 40.1876C141.275 41.5365 141.035 45.3473 141.035 45.3473Z" fill="#BE6F72"></path><path opacity="0.1" d="M123.518 35.6277C127.811 35.6277 131.291 32.1106 131.291 27.7721C131.291 23.4336 127.811 19.9166 123.518 19.9166C119.224 19.9166 115.744 23.4336 115.744 27.7721C115.744 32.1106 119.224 35.6277 123.518 35.6277Z" fill="black"></path><path opacity="0.1" d="M141.047 50.9431H106.122C106.122 50.8868 106.122 50.8569 106.122 50.8569L106.411 45.757C106.411 45.757 109.244 42.6901 111.726 40.6202L133.653 39.741L134.673 38.6542L138.367 40.367C141.268 41.7141 141.035 45.5249 141.035 45.5249C141.035 45.5249 141.432 49.9407 141.047 50.9431Z" fill="black"></path><path d="M141.047 50.7672H106.122C106.122 50.7109 106.122 50.681 106.122 50.681L106.411 45.5812C106.411 45.5812 109.244 42.5142 111.726 40.4444L133.653 39.5651L134.673 38.4783L138.367 40.1912C141.268 41.5382 141.035 45.349 141.035 45.349C141.035 45.349 141.432 49.7648 141.047 50.7672Z" fill="#E7C7CA"></path><path opacity="0.1" d="M117.919 36.4665C117.919 36.4665 123.429 43.5606 130.768 36.3205C138.106 29.0805 131.58 52.4695 131.58 52.4695L115.744 54.3688L117.919 36.4665Z" fill="black"></path><path d="M117.919 36.8182C117.919 36.8182 123.429 43.9123 130.768 36.6723C138.106 29.4322 131.58 52.8212 131.58 52.8212L115.744 54.7205L117.919 36.8182Z" fill="#E7C7CA"></path><path opacity="0.1" d="M133.035 38.0633L133.618 47.0478L134.243 50.0374L134.72 52.3235C134.72 52.3235 135.938 69.9093 135.59 70.7885C135.242 71.6678 135.764 72.3713 135.837 72.839C135.91 73.3068 135.764 74.4815 135.821 75.0091C135.879 75.5367 135.821 75.7706 134.488 75.5824C133.155 75.3942 131.297 75.0671 131.297 75.0671C131.297 75.0671 126.598 75.4189 124.974 74.8333C123.351 74.2476 120.276 74.2459 120.276 74.2459C120.276 74.2459 115.634 74.3637 114.127 74.1879C112.62 74.012 111.806 76.0643 110.821 75.4769C109.836 74.8895 111.98 69.2058 112.676 67.5633C113.372 65.9208 111.748 61.76 111.748 61.76L113.837 50.0532L114.301 47.3995V39.0569L114.416 39.0164C114.84 38.8495 115.218 38.5831 115.519 38.2391L116.042 46.6346L132.4 47.2219V37.7731" fill="black"></path><path d="M133.035 37.7116L133.618 46.6961L134.243 49.6857L134.72 51.9718C134.72 51.9718 135.938 69.5575 135.59 70.4368C135.242 71.3161 135.764 72.0195 135.837 72.4873C135.91 72.9551 135.764 74.1298 135.821 74.6574C135.879 75.185 135.821 75.4189 134.488 75.2307C133.155 75.0425 131.297 74.7154 131.297 74.7154C131.297 74.7154 126.598 75.0672 124.974 74.4815C123.351 73.8959 120.276 73.8942 120.276 73.8942C120.276 73.8942 115.634 74.012 114.127 73.8362C112.62 73.6603 111.806 75.7125 110.821 75.1252C109.836 74.5378 111.98 68.8541 112.676 67.2116C113.372 65.5691 111.748 61.4083 111.748 61.4083L113.837 49.7015L114.301 47.0478V38.7052L114.416 38.6647C114.84 38.4978 115.218 38.2313 115.519 37.8874L116.042 46.2829L132.4 46.8702V37.4214" fill="#E7C7CA"></path><path opacity="0.1" d="M134.916 18.9617C134.817 18.5941 134.68 18.2125 134.394 17.9663C134.122 17.7686 133.807 17.6385 133.475 17.5865C132.682 17.3756 131.875 17.2193 131.06 17.1187C130.944 16.7282 130.767 16.3585 130.538 16.0231C128.832 13.5892 126.309 11.2943 123.34 10.7755C121.786 10.503 119.985 10.7474 118.99 11.9854C118.443 12.666 118.208 13.5681 117.657 14.2364C116.593 15.5342 114.674 15.6943 113.334 16.6984C112.619 17.226 112.1 17.991 111.594 18.7331C111.045 19.5367 110.481 20.3738 110.307 21.334C109.959 23.2526 111.214 25.0815 111.446 27.0177C111.968 31.3491 107.373 35.1915 108.242 39.4649C108.748 41.9568 111.026 43.7118 113.382 44.6017C114.213 44.9164 115.161 45.2295 115.549 46.0349C115.723 46.3866 115.753 46.7928 115.916 47.1481C116.466 48.3333 118.274 48.3791 119.245 47.5156C120.216 46.6522 120.523 45.2559 120.638 43.9527C121.104 38.262 118.849 32.6399 119.111 26.935C119.19 25.2099 119.67 23.2526 121.2 22.4718C123.258 21.4167 125.735 23.1752 128.001 22.8393C129.073 25.4757 129.3 28.3853 128.651 31.1591C128.291 32.6768 127.668 34.1487 127.623 35.7138C127.555 38.0967 128.827 40.2738 129.927 42.3806C130.163 42.7745 130.321 43.2112 130.392 43.6661C130.409 44.1277 130.324 44.5873 130.143 45.0114C129.522 46.7014 128.45 48.27 128.328 50.0691C128.292 50.2791 128.339 50.4949 128.458 50.6705C128.581 50.7877 128.739 50.8596 128.907 50.8745C130.787 51.1998 132.412 49.5169 133.329 47.8269C134.352 45.9603 134.948 43.886 135.073 41.7563C135.263 38.1758 133.992 34.6534 134.071 31.0695C134.161 26.9948 135.983 22.8921 134.916 18.9617Z" fill="black"></path><path d="M135.09 18.7858C134.991 18.4183 134.854 18.0367 134.568 17.7905C134.296 17.5927 133.981 17.4626 133.649 17.4106C132.856 17.1997 132.049 17.0434 131.234 16.9428C131.118 16.5524 130.941 16.1827 130.712 15.8473C129.006 13.4134 126.483 11.1185 123.514 10.5997C121.96 10.3271 120.159 10.5715 119.164 11.8096C118.617 12.4901 118.382 13.3923 117.831 14.0605C116.767 15.3584 114.848 15.5184 113.508 16.5225C112.793 17.0501 112.274 17.8151 111.768 18.5572C111.219 19.3609 110.655 20.198 110.481 21.1581C110.133 23.0767 111.388 24.9057 111.62 26.8418C112.142 31.1732 107.547 35.0157 108.416 39.289C108.922 41.7809 111.2 43.536 113.556 44.4258C114.387 44.7406 115.335 45.0536 115.723 45.859C115.897 46.2108 115.927 46.617 116.09 46.9722C116.64 48.1575 118.448 48.2032 119.419 47.3398C120.39 46.4763 120.697 45.08 120.812 43.7769C121.278 38.0862 119.023 32.464 119.285 26.7592C119.364 25.034 119.844 23.0767 121.374 22.2959C123.432 21.2408 125.909 22.9994 128.175 22.6635C129.247 25.2998 129.474 28.2094 128.825 30.9833C128.465 32.5009 127.842 33.9729 127.797 35.538C127.729 37.9208 129.001 40.098 130.101 42.2047C130.337 42.5987 130.495 43.0353 130.566 43.4902C130.583 43.9518 130.498 44.4115 130.317 44.8356C129.696 46.5255 128.624 48.0942 128.502 49.8932C128.466 50.1032 128.513 50.319 128.632 50.4946C128.755 50.6119 128.913 50.6837 129.081 50.6986C130.961 51.024 132.586 49.341 133.503 47.651C134.526 45.7844 135.122 43.7102 135.247 41.5804C135.437 38 134.166 34.4776 134.245 30.8936C134.335 26.819 136.157 22.7162 135.09 18.7858Z" fill="#3E373A"></path><path d="M131.246 96.6501L138.15 96.8734L137.16 91.6997L131.871 92.208L131.246 96.6501Z" fill="#C3C7D9"></path><path d="M152.637 84.3876C152.173 84.9732 150.375 86.0283 150.201 86.38C150.027 86.7317 147.881 87.7869 146.778 87.9627C145.675 88.1386 142.196 88.9018 141.557 89.3116C141.099 89.607 137.426 90.5426 135.012 91.0613C134.358 91.2176 133.697 91.338 133.03 91.4218C131.986 91.4799 120.559 87.553 120.559 87.553L122.762 85.2668L122.884 85.2246C123.507 85.0119 126.386 84.0288 127.983 83.561C129.783 83.0335 131.871 80.8652 131.871 80.8652C131.871 80.8652 134.944 79.81 135.351 79.6922C135.759 79.5744 134.307 75.5894 134.307 75.5894C134.307 75.5894 140.978 74.6539 143.588 73.8608C146.198 73.0677 152.232 73.3613 153.333 76.4687C154.435 79.5761 153.109 83.802 152.637 84.3876Z" fill="#4B4B5B"></path><path d="M122.24 94.2936C122.24 94.2936 120.907 95.7005 119.573 95.5844C118.238 95.4683 113.57 95.9361 113.57 95.9361C112.725 96.2771 111.933 96.7409 111.219 97.3131C110.128 98.1818 109.549 97.4889 109.441 97.3412L109.422 97.3131C108.84 99.1613 107.507 97.7527 107.507 97.7527C107.507 97.7527 108.087 92.1253 107.909 91.4219C107.732 90.7184 109.056 89.5103 109.056 89.5103L110.622 89.1076L114.59 88.0806L120.276 90.073L122.24 94.2936Z" fill="#E7C7CA"></path><path opacity="0.1" d="M110.615 89.1076L109.441 97.3412L109.422 97.3131C108.84 99.1613 107.507 97.7527 107.507 97.7527C107.507 97.7527 108.087 92.1253 107.909 91.4219C107.732 90.7184 109.056 89.5103 109.056 89.5103L110.615 89.1076Z" fill="black"></path><path opacity="0.1" d="M118.826 65.6869C118.826 65.6869 121.899 66.7421 124.569 65.6869Z" fill="black"></path><path opacity="0.1" d="M129.318 67.6812C129.318 67.6812 130.594 68.3248 131.58 67.6812Z" fill="black"></path><path opacity="0.1" d="M129.318 69.2076C129.318 69.2076 131.464 69.4978 131.871 68.9121Z" fill="black"></path><path opacity="0.1" d="M128.622 72.4873C128.622 72.4873 132.652 71.9597 133.653 71.2563Z" fill="black"></path><path opacity="0.1" d="M116.323 71.2563C116.323 71.2563 118.586 72.5453 120.269 72.4873Z" fill="black"></path><path opacity="0.1" d="M135.01 91.0614C134.357 91.2177 133.695 91.338 133.028 91.4219C131.984 91.4799 120.557 87.553 120.557 87.553L122.761 85.2669L122.882 85.2247C123.231 85.4726 123.516 85.6854 123.72 85.8472C124.678 86.6104 125.604 85.6133 125.952 85.6133C126.3 85.6133 129.316 88.1333 129.316 88.1333C129.316 88.1333 132.101 88.7787 132.565 89.3643C133.03 89.9499 134.654 89.8339 134.942 90.2436C135.029 90.3702 135.04 90.6815 135.01 91.0614Z" fill="black"></path><path d="M113.57 75.8286C113.57 75.8286 110.755 75.9922 109.131 75.301C107.507 74.6099 102.113 73.0149 100.546 74.1351C98.9802 75.2553 95.209 76.2454 96.9493 80.7016C98.6895 85.1578 99.5022 85.2739 99.5022 85.2739C100.041 85.6819 100.511 86.1748 100.894 86.7335C101.417 87.5548 106.289 89.4294 107.507 89.4294C108.726 89.4294 110.871 89.4294 113.887 91.5397C116.903 93.65 119.63 93.8856 119.63 93.8856C119.63 93.8856 123.459 95.4683 124.651 95.82C125.843 96.1718 131.29 97.6947 132.567 97.2269C133.844 96.7591 134.655 93.8258 134.655 93.8258C134.655 93.8258 135.235 91.188 134.944 90.7782C134.654 90.3685 133.03 90.4845 132.567 89.8989C132.104 89.3133 129.318 88.6679 129.318 88.6679C129.318 88.6679 126.309 86.1462 125.961 86.1462C125.613 86.1462 124.687 87.1415 123.728 86.38C121.818 84.9504 119.811 83.6576 117.723 82.5112C115.52 81.3382 113.57 75.8286 113.57 75.8286Z" fill="#4B4B5B"></path><path opacity="0.1" d="M107.909 77.5291C108.411 77.4256 108.929 77.4405 109.424 77.5726C109.918 77.7047 110.376 77.9504 110.762 78.2906C112.154 79.4636 116.839 81.8183 116.839 81.8183" fill="black"></path><path opacity="0.1" d="M142.718 77.4553C142.718 77.4553 136.51 78.4049 135.351 79.694Z" fill="black"></path><path d="M149.853 96.8734H149.58C148.598 96.8383 145.273 96.7327 144.632 96.8734C143.879 97.0493 133.9 96.8734 133.9 96.8734L135.851 96.4637C135.851 96.4637 135.127 93.8997 135.586 93.6869C135.586 93.6869 132.976 91.9494 134.944 90.7765C136.912 89.6035 139.034 90.0977 139.034 90.0977L143.974 88.4059L144.923 88.0806C144.923 88.0806 150.492 88.3742 151.999 92.2431C153.506 96.112 149.853 96.8734 149.853 96.8734Z" fill="#E7C7CA"></path><path opacity="0.1" d="M149.853 96.8734H149.58C151.2 95.5228 154.865 91.4113 143.974 88.4147L144.923 88.0894C144.923 88.0894 150.492 88.383 151.999 92.2519C153.506 96.1208 149.853 96.8734 149.853 96.8734Z" fill="black"></path><path d="M139.615 92.3152C139.783 92.3152 139.92 92.1774 139.92 92.0075C139.92 91.8375 139.783 91.6997 139.615 91.6997C139.447 91.6997 139.31 91.8375 139.31 92.0075C139.31 92.1774 139.447 92.3152 139.615 92.3152Z" fill="#4B4B5B"></path><path d="M137.845 92.8234C138.013 92.8234 138.15 92.6857 138.15 92.5157C138.15 92.3457 138.013 92.2079 137.845 92.2079C137.677 92.2079 137.541 92.3457 137.541 92.5157C137.541 92.6857 137.677 92.8234 137.845 92.8234Z" fill="#4B4B5B"></path><g opacity="0.1"><path opacity="0.1" d="M129.222 27.4811C129.29 25.5468 128.949 23.6201 128.223 21.829C125.961 22.1702 123.483 20.4064 121.422 21.4615C119.898 22.2423 119.419 24.1996 119.334 25.9248C119.313 26.3802 119.31 26.8357 119.318 27.2912C119.318 27.1294 119.318 26.9658 119.334 26.804C119.414 25.0789 119.893 23.1216 121.422 22.3408C123.483 21.2856 125.957 23.0442 128.223 22.7083C128.838 24.2255 129.176 25.8424 129.222 27.4811V27.4811Z" fill="black"></path><path opacity="0.1" d="M111.691 27.1601C111.721 26.777 111.713 26.3917 111.668 26.01C111.484 24.4625 110.647 22.9835 110.495 21.4747C110.3 23.2948 111.447 25.0428 111.668 26.8893C111.691 26.9843 111.691 27.0687 111.691 27.1601Z" fill="black"></path><path opacity="0.1" d="M120.86 42.9416C120.752 44.2464 120.448 45.641 119.468 46.5062C118.488 47.3714 116.684 47.3239 116.139 46.1386C115.965 45.7869 115.939 45.3772 115.77 45.0255C115.384 44.22 114.434 43.907 113.603 43.5922C111.245 42.7006 108.971 40.9544 108.464 38.4554C108.419 38.2291 108.388 38 108.372 37.7696C108.329 38.2931 108.361 38.8201 108.464 39.3347C108.971 41.8266 111.249 43.5799 113.603 44.4715C114.434 44.7863 115.384 45.0993 115.77 45.9048C115.944 46.2565 115.974 46.6627 116.139 47.0179C116.687 48.2032 118.495 48.2489 119.468 47.3855C120.441 46.522 120.744 45.1257 120.86 43.8209C120.913 43.1341 120.931 42.445 120.914 41.7563C120.914 42.1555 120.892 42.5494 120.86 42.9416Z" fill="black"></path><path opacity="0.1" d="M134.302 30.06C134.302 30.315 134.302 30.5683 134.302 30.8215C134.399 27.5505 135.586 24.262 135.47 21.0597C135.379 24.0211 134.368 27.0494 134.302 30.06Z" fill="black"></path><path opacity="0.1" d="M130.567 43.2915C130.61 43.0828 130.624 42.8691 130.607 42.6567C130.537 42.2015 130.38 41.7648 130.143 41.3711C129.137 39.4367 127.99 37.4566 127.854 35.3094C127.854 35.4008 127.842 35.4852 127.84 35.5837C127.771 37.9648 129.043 40.1437 130.143 42.2504C130.33 42.5767 130.473 42.9269 130.567 43.2915V43.2915Z" fill="black"></path><path opacity="0.1" d="M135.303 40.7469C135.173 42.8774 134.573 44.9516 133.547 46.8175C132.628 48.5074 131.004 50.1904 129.123 49.865C128.954 49.8504 128.796 49.7778 128.674 49.6593C128.639 49.619 128.611 49.5725 128.592 49.5221C128.571 49.6593 128.554 49.7982 128.544 49.9389C128.508 50.1484 128.554 50.3637 128.674 50.5386C128.796 50.657 128.954 50.7297 129.123 50.7443C131.004 51.0697 132.628 49.3867 133.547 47.6967C134.573 45.8309 135.173 43.7567 135.303 41.6262C135.324 41.2146 135.325 40.8049 135.313 40.3952C135.31 40.513 135.31 40.629 135.303 40.7469Z" fill="black"></path></g><path opacity="0.1" d="M135.586 93.6869C135.586 93.6869 139.991 95.5545 142.895 91.4219" stroke="black" stroke-miterlimit="10"></path><path opacity="0.1" d="M136.453 96.9508C136.453 96.9508 140.05 94.5873 144.632 96.8734" stroke="black" stroke-miterlimit="10"></path><path opacity="0.1" d="M112.375 96.4144C112.375 96.4144 113.885 92.9712 117.919 95.5967" stroke="black" stroke-miterlimit="10"></path><path opacity="0.1" d="M107.478 45.4932L110.558 42.6795C110.558 42.6795 122.501 41.8882 122.996 45.9909C122.996 45.9909 127.23 41.1267 136.135 42.21L139.902 45.2418L129.488 49.8598L119.369 53.4068L111.915 50.0356L107.478 45.4932Z" fill="black"></path><path d="M107.478 45.6691L110.558 42.8554C110.558 42.8554 122.501 42.064 122.996 46.1668C122.996 46.1668 127.23 41.3026 136.135 42.3859L139.902 45.4176L129.488 50.0356L119.369 53.5827L111.915 50.2115L107.478 45.6691Z" fill="#D5D6DB"></path><path opacity="0.1" d="M106.115 46.0208L107.478 62.4934L121.922 63.2267L121.295 46.8245L121.283 46.5484L106.115 46.0208Z" fill="black"></path><path d="M106.115 45.6691L107.478 62.1416L121.922 62.875L121.295 46.4728L121.283 46.1967L106.115 45.6691Z" fill="#E43C4A"></path><path opacity="0.1" d="M140.563 45.6691L125.663 47.9271V64.4735L140.224 62.3474L140.563 45.6691Z" fill="black"></path><path d="M140.563 45.3174L125.663 47.5754V64.1218L140.224 61.9957L140.563 45.3174Z" fill="#E43C4A"></path><path opacity="0.3" d="M137.05 49.3551L129.001 50.259L129.177 53.0305L137.045 52.1618L137.05 49.3551Z" fill="white"></path><path d="M108.261 70.9626L109.081 73.1907C109.081 73.1907 110.299 74.2459 111.632 73.7183C112.965 73.1907 114.127 72.9287 114.707 72.4152C115.286 71.9017 116.099 69.3219 116.099 69.3219C116.099 69.3219 116.912 66.5082 117.723 65.8047C118.534 65.1013 120.681 55.4098 117.723 56.3577C114.764 57.3056 112.502 66.0984 112.502 66.0984C112.502 66.0984 111.98 66.7421 111.226 66.8019C110.473 66.8617 108.964 66.684 108.673 67.3294C108.383 67.9748 107.391 69.6736 108.261 70.9626Z" fill="#BE6F72"></path><path opacity="0.1" d="M125.663 47.9254C124.901 48.0991 124.108 48.09 123.349 47.8988C122.591 47.7077 121.887 47.3398 121.294 46.8245L121.922 63.2249C121.922 63.2249 123.401 64.8428 125.663 64.4735V47.9254Z" fill="black"></path><path d="M125.663 47.5736C124.901 47.7474 124.108 47.7383 123.349 47.5471C122.591 47.356 121.887 46.988 121.294 46.4728L121.922 62.8732C121.922 62.8732 123.401 64.4911 125.663 64.1218V47.5736Z" fill="#E43C4A"></path><path opacity="0.1" d="M125.663 47.5736C124.901 47.7474 124.108 47.7383 123.349 47.5471C122.591 47.356 121.887 46.988 121.294 46.4728L121.922 62.8732C121.922 62.8732 123.401 64.4911 125.663 64.1218V47.5736Z" fill="black"></path><path opacity="0.1" d="M126.011 45.7254C126.011 45.7254 132.073 43.8525 133.653 44.1163Z" fill="black"></path><path opacity="0.1" d="M119.231 44.9077C119.231 44.9077 113.356 43.5008 112.375 43.9Z" fill="black"></path><path opacity="0.1" d="M129.833 45.9593C129.833 45.9593 133.886 44.4575 135.351 45.1714Z" fill="black"></path><path opacity="0.1" d="M127.792 83.6331C128.42 83.1565 129.088 82.7369 129.79 82.3793C130.834 81.8711 132.748 80.5521 132.748 80.5521" fill="black"></path><path opacity="0.1" d="M112.375 65.6869C112.375 65.6869 109.832 67.7884 109.068 67.9731C108.304 68.1577 107.833 69.7967 107.833 69.7967" fill="black"></path><path d="M139.069 70.6496L138.258 72.883C138.258 72.883 137.039 73.9382 135.705 73.4106C134.37 72.883 133.211 72.621 132.63 72.1075C132.048 71.594 131.237 69.0142 131.237 69.0142C131.237 69.0142 130.426 66.2004 129.614 65.497C128.801 64.7936 126.655 55.1021 129.614 56.05C132.572 56.9978 134.835 65.7907 134.835 65.7907C134.835 65.7907 135.357 66.4343 136.11 66.4941C136.864 66.5539 138.372 66.3763 138.663 67.0217C138.954 67.6671 139.939 69.3659 139.069 70.6496Z" fill="#BE6F72"></path><path opacity="0.1" d="M137.647 66.5416C137.647 66.5416 139.309 67.6214 139.302 68.9121Z" fill="black"></path><path d="M123.546 35.2425C127.839 35.2425 131.319 31.7255 131.319 27.387C131.319 23.0485 127.839 19.5315 123.546 19.5315C119.252 19.5315 115.772 23.0485 115.772 27.387C115.772 31.7255 119.252 35.2425 123.546 35.2425Z" fill="#BE6F72"></path><path d="M118.664 25.2785C119.607 25.129 120.434 24.575 121.335 24.2567C123.352 23.541 125.583 24.0316 127.625 24.677C128.408 24.925 129.203 25.2046 130.025 25.2046C130.846 25.2046 131.718 24.8652 132.137 24.1495C132.524 23.4918 132.449 22.6371 132.123 21.946C131.798 21.2549 131.253 20.6991 130.703 20.1751C128.893 18.4482 126.648 16.8338 124.165 17.0097C123.166 17.0818 122.211 17.4423 121.292 17.8415C120.135 18.3453 119.009 18.9184 117.919 19.5578C117.082 20.0485 115.532 20.7044 115.05 21.6013C113.953 23.6219 116.959 25.5493 118.664 25.2785Z" fill="#3E373A"></path><path opacity="0.1" d="M132.137 23.4109C131.718 24.1266 130.846 24.466 130.024 24.466C129.203 24.466 128.408 24.1969 127.623 23.949C125.582 23.3036 123.352 22.8112 121.334 23.5287C120.434 23.847 119.606 24.408 118.662 24.5487C117.288 24.7667 115.074 23.5568 114.834 22.0181C114.564 23.796 117.131 25.3189 118.662 25.0762C119.606 24.9267 120.434 24.3728 121.334 24.0563C123.352 23.3388 125.582 23.8312 127.623 24.4766C128.408 24.7245 129.201 25.0041 130.024 24.9936C130.848 24.983 131.718 24.6559 132.137 23.9384C132.355 23.5481 132.44 23.0968 132.381 22.6529C132.354 22.9202 132.271 23.1785 132.137 23.4109Z" fill="black"></path><path d="M195.223 118.717C195.223 118.717 196.255 120.08 194.746 122.139C193.237 124.198 191.995 125.936 192.496 127.219C192.496 127.219 194.772 123.396 196.624 123.342C198.476 123.287 197.257 121.015 195.223 118.717Z" fill="#E43C4A"></path><path opacity="0.1" d="M195.223 118.717C195.313 118.848 195.384 118.992 195.434 119.144C197.24 121.289 198.204 123.292 196.466 123.342C194.847 123.389 192.907 126.314 192.442 127.051C192.457 127.11 192.475 127.169 192.496 127.226C192.496 127.226 194.772 123.403 196.624 123.349C198.476 123.294 197.257 121.015 195.223 118.717Z" fill="black"></path><path d="M197.137 120.454C197.137 120.934 197.083 121.323 197.019 121.323C196.955 121.323 196.899 120.934 196.899 120.454C196.899 119.974 196.965 120.201 197.031 120.201C197.097 120.201 197.137 119.974 197.137 120.454Z" fill="#FFD037"></path><path d="M197.797 121.027C197.381 121.256 197.017 121.395 196.986 121.337C196.955 121.279 197.266 121.045 197.682 120.809C198.098 120.574 197.934 120.746 197.966 120.809C197.997 120.873 198.215 120.797 197.797 121.027Z" fill="#FFD037"></path><path d="M189.769 118.717C189.769 118.717 188.737 120.08 190.246 122.139C191.755 124.198 192.997 125.936 192.494 127.219C192.494 127.219 190.22 123.396 188.366 123.342C186.513 123.287 187.74 121.015 189.769 118.717Z" fill="#E43C4A"></path><path opacity="0.1" d="M189.769 118.717C189.679 118.848 189.608 118.992 189.559 119.144C187.752 121.289 186.788 123.292 188.527 123.342C190.143 123.389 192.085 126.314 192.55 127.051C192.535 127.11 192.517 127.169 192.494 127.226C192.494 127.226 190.22 123.403 188.366 123.349C186.513 123.294 187.74 121.015 189.769 118.717Z" fill="black"></path><path d="M187.851 120.454C187.851 120.934 187.904 121.323 187.97 121.323C188.036 121.323 188.09 120.934 188.09 120.454C188.09 119.974 188.022 120.201 187.958 120.201C187.893 120.201 187.851 119.974 187.851 120.454Z" fill="#FFD037"></path><path d="M187.194 121.027C187.609 121.256 187.973 121.395 188.004 121.337C188.036 121.279 187.724 121.045 187.308 120.809C186.892 120.574 187.056 120.746 187.025 120.809C186.993 120.873 186.776 120.797 187.194 121.027Z" fill="#FFD037"></path><path opacity="0.1" d="M192.496 137.651C198.455 137.651 203.286 136.902 203.286 135.979C203.286 135.055 198.455 134.306 192.496 134.306C186.537 134.306 181.707 135.055 181.707 135.979C181.707 136.902 186.537 137.651 192.496 137.651Z" fill="#E43C4A"></path><path d="M198.049 125.382L197.997 125.807L197.924 126.409L197.894 126.66L197.821 127.262L197.79 127.513L197.719 128.113L196.892 134.954C196.819 135.564 195.832 136.04 194.64 136.04H190.35C189.158 136.04 188.173 135.564 188.098 134.954L187.272 128.113L187.199 127.513L187.169 127.262L187.096 126.66L187.065 126.409L186.993 125.807L186.941 125.382C186.901 125.03 187.434 124.745 188.109 124.745H196.883C197.557 124.745 198.091 125.035 198.049 125.382Z" fill="#65617D"></path><path d="M197.997 125.807L197.926 126.409H187.066L186.993 125.807H197.997Z" fill="#9D9CB5"></path><path d="M197.894 126.66L197.823 127.262H187.169L187.096 126.66H197.894Z" fill="#9D9CB5"></path><path d="M197.792 127.513L197.719 128.114H187.272L187.201 127.513H197.792Z" fill="#9D9CB5"></path></g><path d="M213.592 109.456C213.592 109.648 213.424 109.744 213.088 109.744C212.848 109.744 212.56 109.648 212.224 109.456C211.888 109.264 211.624 109 211.432 108.664C211.048 107.848 210.856 106.84 210.856 105.64L210.928 102.688C212.416 93.952 214.168 85.168 216.184 76.336C216.856 73.984 217.408 71.752 217.84 69.64C218.32 67.528 218.608 66.184 218.704 65.608C218.704 65.464 218.56 65.536 218.272 65.824C218.032 66.064 217.792 66.376 217.552 66.76C217.312 67.096 217.216 67.336 217.264 67.48L215.464 70.144C215.176 70.432 214.504 71.536 213.448 73.456C212.728 74.992 212.08 76.192 211.504 77.056L209.488 80.872C208 83.608 207.088 85.264 206.752 85.84C206.272 86.56 205.576 87.808 204.664 89.584C204.184 90.736 203.32 92.104 202.072 93.688C201.688 94.216 201.304 94.792 200.92 95.416C200.584 96.04 200.368 96.448 200.272 96.64C200.272 96.88 199.768 97.696 198.76 99.088C197.8 100.48 196.912 101.632 196.096 102.544C194.992 103.696 194.08 104.536 193.36 105.064C192.64 105.544 191.968 105.784 191.344 105.784C190.528 105.784 189.64 105.328 188.68 104.416C188.056 103.744 187.6 102.952 187.312 102.04C187.072 101.128 186.952 100 186.952 98.656C186.952 97.456 187.12 95.44 187.456 92.608C187.504 92.368 187.96 89.8 188.824 84.904C189.736 79.96 190.288 77.248 190.48 76.768C190.528 76.48 190.552 76.144 190.552 75.76C190.552 75.328 190.48 75.112 190.336 75.112C190.192 75.112 189.928 75.424 189.544 76.048C189.4 76.24 188.536 77.584 186.952 80.08C185.416 82.576 183.76 85.768 181.984 89.656C179.2 94.792 177.136 98.656 175.792 101.248C174.448 103.792 173.464 105.616 172.84 106.72C172.024 108.304 171.544 109.168 171.4 109.312C170.68 109.312 169.768 108.712 168.664 107.512C168.52 107.224 168.448 106.96 168.448 106.72C168.448 106.384 168.592 105.832 168.88 105.064C169.216 104.296 169.672 103.288 170.248 102.04C171.736 99.112 172.72 97.456 173.2 97.072C173.776 96.304 174.112 95.464 174.208 94.552C174.832 93.688 175.72 92.128 176.872 89.872C177.592 88.72 178.432 87.28 179.392 85.552C180.4 83.824 181.288 82.168 182.056 80.584L184.072 77.056C185.944 73.792 187.432 71.272 188.536 69.496C189.688 67.72 190.552 66.544 191.128 65.968C191.896 65.056 192.28 64.336 192.28 63.808C192.28 62.8 192.472 61.888 192.856 61.072C193.288 60.208 193.72 59.824 194.152 59.92C194.728 59.92 195.184 59.992 195.52 60.136C195.904 60.232 196.288 60.52 196.672 61C196.768 61.144 196.912 61.384 197.104 61.72C197.344 62.008 197.512 62.344 197.608 62.728C197.752 63.064 197.824 63.496 197.824 64.024C197.824 64.6 197.752 65.32 197.608 66.184C197.56 66.808 197.368 68.224 197.032 70.432C196.84 71.488 196.744 72.136 196.744 72.376C195.496 76.168 194.368 80.92 193.36 86.632C192.4 92.296 191.92 96.28 191.92 98.584C191.92 99.112 191.968 99.472 192.064 99.664C192.4 99.904 192.688 99.928 192.928 99.736C193.216 99.544 193.624 98.92 194.152 97.864C194.776 96.712 195.832 95.224 197.32 93.4C197.416 93.256 198.352 91.672 200.128 88.648C204.544 81.4 208.84 74.128 213.016 66.832L214.888 63.88C215.608 62.728 216.304 61.672 216.976 60.712C217.648 59.704 218.176 59.056 218.56 58.768C219.04 58.384 219.496 58.192 219.928 58.192C220.84 58.192 221.656 58.744 222.376 59.848C223.096 60.952 223.456 62.344 223.456 64.024C223.456 65.32 223.192 67.312 222.664 70C222.136 72.64 221.44 75.304 220.576 77.992C220.288 79.336 219.88 81.016 219.352 83.032C218.824 85.048 218.272 86.872 217.696 88.504C217.6 89.32 217.408 90.352 217.12 91.6C217.072 91.84 216.928 92.584 216.688 93.832C216.496 95.032 216.448 95.848 216.544 96.28C215.824 97.576 215.464 100.168 215.464 104.056L215.248 105.712C215.152 107.056 215.056 107.968 214.96 108.448C214.864 108.928 214.72 109.144 214.528 109.096C214.432 109.048 214.288 109.024 214.096 109.024C213.76 109.024 213.592 109.168 213.592 109.456ZM229.988 104.92C229.412 104.92 228.956 104.824 228.62 104.632C228.284 104.44 227.804 104.08 227.18 103.552C225.596 101.872 224.804 100.336 224.804 98.944C224.804 98.608 224.828 98.368 224.876 98.224C225.02 97.888 225.068 97.552 225.02 97.216C225.02 96.88 225.02 96.664 225.02 96.568C224.828 96.376 224.732 96.256 224.732 96.208C224.732 96.112 224.78 96.04 224.876 95.992C224.972 95.896 225.044 95.8 225.092 95.704C225.38 95.704 225.476 95.44 225.38 94.912C225.284 94.528 225.476 93.688 225.956 92.392C226.436 91.048 227.036 89.824 227.756 88.72C228.284 87.856 229.052 86.776 230.06 85.48C231.116 84.184 232.052 83.2 232.868 82.528C234.02 81.52 235.052 80.776 235.964 80.296C236.876 79.816 237.884 79.456 238.988 79.216C239.948 78.976 240.596 78.856 240.932 78.856C241.268 78.856 241.556 78.952 241.796 79.144C242.084 79.288 242.444 79.576 242.876 80.008C244.172 80.584 245.06 81.328 245.54 82.24C246.068 83.104 246.332 84.472 246.332 86.344C246.332 89.464 245.06 92.848 242.516 96.496C241.412 98.08 240.38 99.304 239.42 100.168C238.46 100.984 237.188 101.872 235.604 102.832C234.596 103.552 233.66 104.08 232.796 104.416C231.98 104.704 231.044 104.872 229.988 104.92ZM236.9 97.288C238.052 95.992 238.964 94.768 239.636 93.616C240.356 92.464 241.028 91 241.652 89.224C241.892 88.408 242.012 87.424 242.012 86.272C242.012 84.832 241.82 84.016 241.436 83.824C240.956 83.584 240.476 83.464 239.996 83.464C238.94 83.464 237.836 83.944 236.684 84.904C235.292 86.104 234.044 87.592 232.94 89.368C231.836 91.096 230.708 93.256 229.556 95.848C229.076 96.856 228.836 97.84 228.836 98.8C228.836 99.52 229.004 100.096 229.34 100.528C229.724 100.96 230.228 101.176 230.852 101.176C232.436 101.176 234.452 99.88 236.9 97.288ZM282.875 102.976C282.203 102.736 281.555 102.16 280.931 101.248C280.355 100.288 280.067 98.752 280.067 96.64L280.139 93.328C280.139 92.752 280.091 92.344 279.995 92.104C279.947 91.864 279.827 91.744 279.635 91.744C279.011 91.744 277.667 92.56 275.603 94.192C273.587 95.824 271.547 97.768 269.483 100.024C269.243 100.264 268.907 100.624 268.475 101.104C268.091 101.536 267.731 101.872 267.395 102.112C267.059 102.304 266.747 102.4 266.459 102.4C266.027 102.4 265.619 102.232 265.235 101.896L264.443 101.248C264.107 100.96 263.939 100.624 263.939 100.24L264.083 99.592L265.739 94.84C266.795 92.392 267.419 90.856 267.611 90.232C267.803 89.56 267.779 89.248 267.539 89.296C267.107 89.344 266.507 89.584 265.739 90.016C264.971 90.4 264.491 90.784 264.299 91.168C264.203 91.168 263.891 91.432 263.363 91.96C262.835 92.44 262.379 92.8 261.995 93.04C261.563 93.664 260.507 94.792 258.827 96.424L257.099 98.08C256.379 98.656 255.371 99.832 254.075 101.608C253.403 102.472 253.019 102.904 252.923 102.904C251.435 102.904 250.499 102.184 250.115 100.744C249.923 100.408 249.827 99.952 249.827 99.376C249.827 98.608 250.115 97.024 250.691 94.624C251.123 92.992 251.363 91.984 251.411 91.6L251.771 90.16C251.867 89.536 252.083 88.792 252.419 87.928C252.755 87.064 253.331 85.696 254.147 83.824C254.627 82.48 254.867 81.472 254.867 80.8C254.867 80.176 255.083 79.696 255.515 79.36C255.947 78.976 256.427 78.784 256.955 78.784C257.627 78.784 258.203 79.048 258.683 79.576C259.163 80.104 259.403 80.8 259.403 81.664C259.403 82.48 259.211 83.32 258.827 84.184L258.035 86.128C257.651 86.896 257.147 88.144 256.523 89.872C255.947 91.552 255.659 92.488 255.659 92.68C255.707 92.824 255.875 92.8 256.163 92.608C256.451 92.368 256.787 92.08 257.171 91.744C257.603 91.312 258.107 90.88 258.683 90.448C260.123 89.104 261.827 87.808 263.795 86.56C265.811 85.312 267.347 84.52 268.403 84.184C269.027 84.184 269.483 84.28 269.771 84.472C270.107 84.616 270.467 84.904 270.851 85.336C271.235 85.72 271.523 86.008 271.715 86.2C272.147 86.632 272.363 87.256 272.363 88.072C272.363 88.312 272.315 88.624 272.219 89.008C272.027 89.68 271.763 90.496 271.427 91.456C271.139 92.416 270.923 93.112 270.779 93.544C271.115 93.256 271.715 92.752 272.579 92.032C273.443 91.312 274.235 90.64 274.955 90.016C277.355 88.144 279.251 87.208 280.643 87.208C281.651 87.208 282.515 87.736 283.235 88.792C283.667 89.224 283.931 89.68 284.027 90.16C284.123 90.592 284.171 91.192 284.171 91.96C284.171 92.728 284.171 93.328 284.171 93.76C284.219 94.096 284.243 94.672 284.243 95.488C284.291 95.872 284.339 96.616 284.387 97.72C284.483 98.824 284.603 99.448 284.747 99.592C284.987 99.88 285.803 100.144 287.195 100.384C288.059 100.528 288.491 100.912 288.491 101.536C288.491 101.968 288.179 102.4 287.555 102.832C286.931 103.216 286.163 103.408 285.251 103.408C284.387 103.408 283.595 103.264 282.875 102.976ZM297.604 106.216C295.54 106.216 293.836 105.448 292.492 103.912C291.148 102.376 290.476 100.456 290.476 98.152C290.476 95.848 290.98 93.328 291.988 90.592C293.044 87.808 294.388 85.312 296.02 83.104C297.652 80.896 299.308 79.408 300.988 78.64C301.948 78.112 303.028 77.848 304.228 77.848C305.14 77.848 306.172 78.112 307.324 78.64C308.14 78.976 308.764 79.384 309.196 79.864C309.628 80.344 310.012 81.088 310.348 82.096C310.492 82.96 310.564 83.56 310.564 83.896C310.564 84.184 310.444 84.808 310.204 85.768C309.628 87.544 308.86 89.056 307.9 90.304C306.988 91.504 305.788 92.536 304.3 93.4C303.532 93.88 302.572 94.12 301.42 94.12C300.412 94.12 299.452 93.952 298.54 93.616C297.676 93.232 297.004 92.68 296.524 91.96L296.02 91.384L295.804 91.96C294.796 94.552 294.292 96.76 294.292 98.584C294.292 99.832 294.532 100.84 295.012 101.608C295.348 102.136 296.164 102.4 297.46 102.4C298.42 102.4 299.116 102.304 299.548 102.112C300.268 101.872 300.892 101.584 301.42 101.248C301.996 100.864 302.548 100.48 303.076 100.096L303.364 99.952H303.292C303.868 99.664 304.348 99.4 304.732 99.16C305.116 98.92 305.38 98.752 305.524 98.656C305.62 98.656 305.716 98.632 305.812 98.584C305.908 98.536 306.004 98.44 306.1 98.296C306.532 98.104 307.036 98.176 307.612 98.512C308.188 98.848 308.476 99.28 308.476 99.808C308.38 100.192 307.948 100.816 307.18 101.68C306.412 102.544 305.836 103 305.452 103.048C305.404 103.048 305.236 103.12 304.948 103.264C304.66 103.408 304.468 103.528 304.372 103.624H304.444C304.012 104.2 303.58 104.488 303.148 104.488H302.572C302.38 104.872 301.732 105.256 300.628 105.64C299.572 106.024 298.564 106.216 297.604 106.216ZM300.844 90.376C302.284 90.376 303.604 89.56 304.804 87.928C305.956 86.392 306.532 84.856 306.532 83.32C306.532 82.504 306.364 81.928 306.028 81.592C305.74 81.448 305.476 81.376 305.236 81.376C304.996 81.376 304.588 81.448 304.012 81.592C303.388 81.736 302.428 82.408 301.132 83.608C299.836 84.76 298.876 85.792 298.252 86.704L297.316 88.216C297.7 88.072 298.06 88 298.396 88C298.78 87.952 298.996 87.976 299.044 88.072C299.044 88.744 299.212 89.296 299.548 89.728C299.884 90.16 300.316 90.376 300.844 90.376ZM336.426 105.136C335.706 105.136 334.962 104.584 334.194 103.48C333.474 102.328 333.114 101.2 333.114 100.096C333.114 99.328 333.282 97.96 333.618 95.992C334.002 93.976 334.458 92.008 334.986 90.088C335.274 89.224 335.418 88.6 335.418 88.216C335.418 87.976 335.322 87.856 335.13 87.856C334.938 87.856 334.362 88.144 333.402 88.72C331.866 89.536 330.81 90.28 330.234 90.952C329.994 91.144 329.61 91.48 329.082 91.96C328.554 92.44 328.074 92.824 327.642 93.112C326.73 93.832 325.506 94.888 323.97 96.28C322.482 97.624 321.258 98.776 320.298 99.736C320.01 100.264 319.602 100.528 319.074 100.528C318.93 100.528 318.714 100.48 318.426 100.384C317.85 100.24 317.346 99.928 316.914 99.448C316.482 98.92 316.266 98.368 316.266 97.792C316.266 97.072 316.674 95.56 317.49 93.256C318.354 90.952 319.41 88.432 320.658 85.696C320.85 85.36 321.018 84.88 321.162 84.256C321.306 83.584 321.378 82.96 321.378 82.384C321.378 82.048 321.45 81.664 321.594 81.232C321.738 80.8 321.906 80.488 322.098 80.296C322.242 80.056 322.458 79.936 322.746 79.936C323.37 79.936 323.898 80.296 324.33 81.016C325.098 81.736 325.482 82.648 325.482 83.752C325.482 84.664 325.218 85.84 324.69 87.28C324.354 87.952 324.09 88.504 323.898 88.936C323.754 89.32 323.658 89.584 323.61 89.728C323.754 89.728 324.378 89.392 325.482 88.72L327.282 87.64L329.442 85.984C330.546 85.12 331.17 84.688 331.314 84.688C331.506 84.688 331.746 84.616 332.034 84.472C332.322 84.328 332.562 84.16 332.754 83.968C332.898 83.824 333.018 83.728 333.114 83.68C333.258 83.632 333.354 83.608 333.402 83.608C333.45 83.608 333.57 83.584 333.762 83.536C333.954 83.488 334.122 83.392 334.266 83.248C334.458 83.056 334.794 82.96 335.274 82.96C335.946 82.96 336.618 83.176 337.29 83.608C337.962 84.04 338.298 84.52 338.298 85.048C338.298 85.192 338.346 85.336 338.442 85.48C338.538 85.576 338.61 85.648 338.658 85.696C338.85 85.696 339.018 85.96 339.162 86.488C339.306 86.968 339.378 87.568 339.378 88.288C339.378 89.344 339.258 90.232 339.018 90.952C339.018 91.48 338.922 92.152 338.73 92.968C338.538 93.784 338.418 94.312 338.37 94.552L337.938 96.424C337.314 98.344 337.002 99.928 337.002 101.176C337.002 102.136 337.194 102.88 337.578 103.408C337.674 103.6 337.722 103.792 337.722 103.984C337.722 104.272 337.602 104.536 337.362 104.776C337.17 105.016 336.858 105.136 336.426 105.136ZM353 109.6C351.704 109.36 350.744 108.904 350.12 108.232C349.544 107.608 349.256 106.648 349.256 105.352C349.256 105.016 349.304 104.416 349.4 103.552C349.592 102.88 349.736 102.208 349.832 101.536C350.072 100.48 350.312 99.856 350.552 99.664C350.6 99.616 350.648 99.52 350.696 99.376C350.744 99.232 350.696 99.112 350.552 99.016C350.552 98.392 350.768 97.528 351.2 96.424C351.296 96.088 351.416 95.752 351.56 95.416C351.704 95.08 351.8 94.864 351.848 94.768C351.752 94.672 351.704 94.528 351.704 94.336C351.704 94.096 351.824 93.856 352.064 93.616C352.352 93.376 352.544 93.16 352.64 92.968C352.784 92.776 352.784 92.584 352.64 92.392C352.544 92.152 353 91.072 354.008 89.152C354.632 87.904 354.968 87.208 355.016 87.064C354.968 86.92 355.304 86.032 356.024 84.4C356.792 82.768 357.392 81.544 357.824 80.728C358.256 80.488 358.088 80.32 357.32 80.224C356.552 80.128 355.616 80.104 354.512 80.152C352.928 80.104 351.704 80.032 350.84 79.936C349.976 79.792 349.28 79.576 348.752 79.288C348.32 78.76 348.104 78.352 348.104 78.064C348.104 77.584 348.68 77.32 349.832 77.272C351.08 77.224 353 77.056 355.592 76.768L359.264 76.48L359.48 75.256C360.152 74.104 360.632 73.216 360.92 72.592C361.208 71.92 361.424 71.176 361.568 70.36C361.712 70.168 361.952 69.688 362.288 68.92C362.672 68.152 362.912 67.408 363.008 66.688C363.536 65.776 364.016 64.912 364.448 64.096C364.928 63.232 365.216 62.728 365.312 62.584C365.84 62.152 366.2 61.936 366.392 61.936C366.68 61.936 367.16 62.176 367.832 62.656C369.032 63.472 369.632 64.168 369.632 64.744C369.632 65.032 369.488 65.32 369.2 65.608C369.008 65.992 368.72 66.76 368.336 67.912C368 68.344 367.64 68.944 367.256 69.712C366.872 70.432 366.608 71.128 366.464 71.8C366.08 72.616 365.696 73.36 365.312 74.032C364.976 74.656 364.736 74.968 364.592 74.968C364.64 75.256 364.736 75.448 364.88 75.544C365.024 75.64 365.264 75.688 365.6 75.688C365.84 75.688 366.128 75.664 366.464 75.616C366.848 75.568 367.304 75.544 367.832 75.544C368.312 75.496 368.72 75.424 369.056 75.328C369.44 75.232 369.8 75.184 370.136 75.184C370.376 75.184 370.664 75.256 371 75.4C371.48 76.024 371.72 76.672 371.72 77.344C371.72 77.872 371.504 78.256 371.072 78.496C370.832 78.544 370.304 78.688 369.488 78.928C368.672 79.168 367.784 79.312 366.824 79.36L363.008 79.72L361.784 82.168C361.448 82.744 361.16 83.296 360.92 83.824C360.68 84.352 360.512 84.664 360.416 84.76C360.416 85 360.224 85.48 359.84 86.2C359.456 86.92 359.168 87.496 358.976 87.928C358.736 88.6 358.448 89.272 358.112 89.944C357.776 90.568 357.56 90.976 357.464 91.168C357.32 91.168 357.224 91.216 357.176 91.312C357.176 91.36 357.176 91.456 357.176 91.6L357.32 92.176C357.32 92.416 357.2 92.656 356.96 92.896C356.768 92.992 356.576 93.16 356.384 93.4C356.24 93.64 356.144 93.808 356.096 93.904C356.192 94 356.24 94.12 356.24 94.264C356.24 94.6 356.072 95.032 355.736 95.56C355.736 96.376 355.4 97.6 354.728 99.232C354.776 100.096 354.824 100.648 354.872 100.888C354.92 101.128 355.04 101.224 355.232 101.176H355.52L356.456 101.104C357.128 100.816 356.768 102.496 355.376 106.144L354.224 108.088C354.176 108.184 354.008 108.448 353.72 108.88C353.432 109.36 353.192 109.6 353 109.6ZM374.748 106.288C373.884 105.952 373.044 105.472 372.228 104.848C371.412 104.176 370.86 103.6 370.572 103.12C370.572 103.024 370.572 102.856 370.572 102.616C370.572 102.376 370.644 102.232 370.788 102.184C370.932 102.088 371.196 102.04 371.58 102.04C372.396 102.04 373.692 102.136 375.468 102.328C376.524 102.328 377.724 102.208 379.068 101.968C380.412 101.68 381.156 101.368 381.3 101.032C381.444 101.032 381.516 101.008 381.516 100.96C381.516 100.864 381.324 100.624 380.94 100.24C380.844 100.24 380.628 100.168 380.292 100.024C379.956 99.832 379.74 99.736 379.644 99.736C379.644 99.544 379.428 99.304 378.996 99.016C378.564 98.68 378.084 98.392 377.556 98.152C376.164 97 375.18 96.16 374.604 95.632C374.028 95.056 373.812 94.648 373.956 94.408V94.048C373.62 94.048 373.236 93.592 372.804 92.68C372.42 91.72 372.228 90.832 372.228 90.016C372.228 89.152 372.588 87.952 373.308 86.416C374.076 84.88 374.94 83.632 375.9 82.672C377.244 81.424 378.972 80.104 381.084 78.712C383.244 77.32 384.948 76.432 386.196 76.048C387.012 75.712 387.828 75.544 388.644 75.544C389.412 75.544 390.06 75.712 390.588 76.048C391.212 76.432 391.812 76.984 392.388 77.704C393.012 78.424 393.42 79.072 393.612 79.648C393.612 80.704 393.492 81.736 393.252 82.744C393.06 83.704 392.748 84.184 392.316 84.184C392.268 84.184 392.196 84.208 392.1 84.256C392.004 84.304 391.956 84.424 391.956 84.616C391.956 84.808 391.86 85.072 391.668 85.408C391.476 85.696 391.212 85.984 390.876 86.272C389.82 87.04 388.956 87.424 388.284 87.424C387.756 87.424 387.42 87.16 387.276 86.632C387.18 86.536 387.084 86.392 386.988 86.2C386.892 86.008 386.772 85.912 386.628 85.912C386.58 85.912 386.484 85.84 386.34 85.696C386.244 85.504 386.196 85.264 386.196 84.976C386.196 84.832 386.244 84.688 386.34 84.544C386.484 84.352 386.58 84.232 386.628 84.184C386.916 84.184 387.396 83.632 388.068 82.528C388.74 81.376 389.076 80.608 389.076 80.224C389.076 79.936 389.028 79.768 388.932 79.72C388.884 79.672 388.668 79.648 388.284 79.648C384.54 81.328 382.212 82.6 381.3 83.464C381.156 83.752 381.036 83.944 380.94 84.04C380.892 84.136 380.772 84.184 380.58 84.184C380.58 83.752 379.308 85.384 376.764 89.08C376.668 89.176 376.548 89.464 376.404 89.944C376.308 90.424 376.26 90.832 376.26 91.168C376.164 91.552 376.116 91.768 376.116 91.816C376.116 92.008 376.188 92.2 376.332 92.392C376.524 92.584 376.764 92.8 377.052 93.04C377.34 93.232 377.628 93.448 377.916 93.688C380.412 95.56 382.14 96.976 383.1 97.936C384.108 98.848 384.708 99.616 384.9 100.24C385.524 101.2 385.836 102.064 385.836 102.832C385.836 103.408 385.62 103.912 385.188 104.344C384.756 104.776 384.108 105.184 383.244 105.568C382.716 105.808 381.828 106 380.58 106.144C379.332 106.336 378.108 106.432 376.908 106.432C376.236 106.432 375.516 106.384 374.748 106.288Z" fill="white"></path><defs><linearGradient id="paint0_linear" x1="125.129" y1="98.2662" x2="125.129" y2="9.99999" gradientUnits="userSpaceOnUse"><stop stop-color="#808080" stop-opacity="0.25"></stop><stop offset="0.54" stop-color="#808080" stop-opacity="0.12"></stop><stop offset="1" stop-color="#808080" stop-opacity="0.1"></stop></linearGradient><clipPath id="clip0"><rect width="178" height="143" fill="white" transform="translate(30 10)"></rect></clipPath></defs></svg>